<svg width="700" height="490" viewBox="0 0 700 490" fill="none" xmlns="http://www.w3.org/2000/svg">
<path fill-rule="evenodd" clip-rule="evenodd" d="M341.253 23.0153C391.906 23.6962 432.498 50.3529 467.481 80.168C508.564 115.181 552.574 152.465 549.882 200.824C546.589 260.002 514.583 319.093 452.463 349.984C383.232 384.411 290.723 398.766 221.749 363.998C157.141 331.432 152.702 259.382 150.106 197.577C148.19 151.931 172.344 110.803 209.685 76.7026C244.023 45.3435 289.642 22.3215 341.253 23.0153Z" fill="#D0F0E4" fill-opacity="0.2"/>
<path d="M612.36 419.44H87.64L181.832 363.818H519.61L612.36 419.44Z" fill="#D0F0E4"/>
<path d="M388.486 147.518H294.084V92.932C294.084 89.236 297.08 86.24 300.776 86.24H381.794C385.49 86.24 388.486 89.236 388.486 92.932V147.518Z" fill="white" stroke="#66B0F0" stroke-width="6" stroke-miterlimit="10"/>
<path d="M381.36 143.962H301.602C299.502 143.962 297.794 142.254 297.794 140.154V93.366C297.794 91.266 299.502 89.558 301.602 89.558H381.36C383.46 89.558 385.168 91.266 385.168 93.366V140.168C385.168 142.268 383.46 143.962 381.36 143.962Z" fill="#66B0F0"/>
<path d="M405.034 160.328C408.646 162.68 407.806 167.286 403.536 167.286H274.932C271.334 167.286 270.102 162.428 273.63 160.202L405.034 160.328Z" fill="#66B0F0" stroke="#66B0F0" stroke-width="6" stroke-miterlimit="10"/>
<path d="M403.536 164.08H274.932C272.636 164.08 271.726 161.378 273.63 160.202L294.112 147.518H388.22L405.02 160.328C406.7 161.602 405.72 164.08 403.536 164.08Z" fill="white" stroke="#66B0F0" stroke-width="6" stroke-miterlimit="10"/>
<path d="M388.696 160.258H289.772C288.008 160.258 287.308 158.172 288.764 157.276L302.988 147.518H376.908L389.83 157.374C391.132 158.354 390.376 160.258 388.696 160.258Z" fill="white" stroke="#66B0F0" stroke-width="6" stroke-miterlimit="10"/>
<path d="M370.51 147.518L383.446 160.258" stroke="#66B0F0" stroke-width="6" stroke-miterlimit="10"/>
<path d="M363.65 147.518L375.046 160.258" stroke="#66B0F0" stroke-width="6" stroke-miterlimit="10"/>
<path d="M357.238 147.518L367.122 160.258" stroke="#66B0F0" stroke-width="6" stroke-miterlimit="10"/>
<path d="M350.07 147.518L358.428 160.258" stroke="#66B0F0" stroke-width="6" stroke-miterlimit="10"/>
<path d="M344.12 147.518L348.194 160.258" stroke="#66B0F0" stroke-width="6" stroke-miterlimit="10"/>
<path d="M308.994 147.518L296.058 160.258" stroke="#66B0F0" stroke-width="6" stroke-miterlimit="10"/>
<path d="M315.854 147.518L304.458 160.258" stroke="#66B0F0" stroke-width="6" stroke-miterlimit="10"/>
<path d="M322.266 147.518L312.382 160.258" stroke="#66B0F0" stroke-width="6" stroke-miterlimit="10"/>
<path d="M329.434 147.518L321.076 160.258" stroke="#66B0F0" stroke-width="6" stroke-miterlimit="10"/>
<path d="M335.384 147.518L331.31 160.258" stroke="#66B0F0" stroke-width="6" stroke-miterlimit="10"/>
<path d="M339.416 160.412V147.518" stroke="#66B0F0" stroke-width="6" stroke-miterlimit="10"/>
<path d="M296.058 152.278H383.166" stroke="#66B0F0" stroke-width="6" stroke-miterlimit="10"/>
<path d="M374.724 143.962H303.898L305.172 134.932C305.956 129.374 309.946 124.81 315.336 123.27L332.598 119.686H346.024L363.286 123.27C368.69 124.796 372.68 129.374 373.45 134.932L374.724 143.962Z" fill="#FFCF2D"/>
<path d="M344.092 130.004L338.982 124.838C338.87 124.726 338.87 124.544 338.982 124.446C339.094 124.334 339.276 124.334 339.374 124.446L344.064 129.192L351.344 120.946C351.442 120.834 351.624 120.82 351.736 120.918C351.848 121.016 351.862 121.198 351.764 121.31L344.092 130.004Z" fill="white"/>
<path d="M334.6 130.004L326.928 121.31C326.83 121.198 326.83 121.016 326.956 120.918C327.068 120.82 327.25 120.82 327.348 120.946L334.628 129.192L339.318 124.446C339.43 124.334 339.598 124.334 339.71 124.446C339.822 124.558 339.822 124.726 339.71 124.838L334.6 130.004Z" fill="white"/>
<path d="M339.43 133.378C338.758 133.378 338.212 132.832 338.212 132.16C338.212 131.488 338.758 130.942 339.43 130.942C340.102 130.942 340.648 131.488 340.648 132.16C340.648 132.832 340.102 133.378 339.43 133.378ZM339.43 131.502C339.066 131.502 338.772 131.796 338.772 132.16C338.772 132.524 339.066 132.818 339.43 132.818C339.794 132.818 340.088 132.524 340.088 132.16C340.088 131.796 339.794 131.502 339.43 131.502Z" fill="white"/>
<path d="M339.43 140.238C338.758 140.238 338.212 139.692 338.212 139.02C338.212 138.348 338.758 137.802 339.43 137.802C340.102 137.802 340.648 138.348 340.648 139.02C340.648 139.692 340.102 140.238 339.43 140.238ZM339.43 138.362C339.066 138.362 338.772 138.656 338.772 139.02C338.772 139.384 339.066 139.678 339.43 139.678C339.794 139.678 340.088 139.384 340.088 139.02C340.088 138.656 339.794 138.362 339.43 138.362Z" fill="white"/>
<path d="M332.514 143.668H309.638L303.534 125.552L326.41 119L332.514 143.668Z" fill="white" stroke="#66B0F0" stroke-width="4" stroke-miterlimit="10"/>
<path d="M310.828 127.904H310.394C309.288 127.904 308.392 127.008 308.392 125.902V119.616C308.392 119.168 308.756 118.804 309.204 118.804H311.094C311.542 118.804 311.906 119.168 311.906 119.616V126.812C311.92 127.414 311.43 127.904 310.828 127.904Z" fill="white"/>
<path d="M310.828 127.904H310.394C309.288 127.904 308.392 127.008 308.392 125.902V119.616C308.392 119.168 308.756 118.804 309.204 118.804H311.094C311.542 118.804 311.906 119.168 311.906 119.616V126.812C311.92 127.414 311.43 127.904 310.828 127.904Z" stroke="#66B0F0" stroke-width="4" stroke-miterlimit="10" stroke-linecap="round"/>
<path d="M320.04 127.904H320.474C321.58 127.904 322.476 127.008 322.476 125.902V119.616C322.476 119.168 322.112 118.804 321.664 118.804H319.76C319.312 118.804 318.948 119.168 318.948 119.616V126.812C318.948 127.414 319.438 127.904 320.04 127.904Z" fill="white"/>
<path d="M314.342 128.632H313.334C312.55 128.632 311.92 128.002 311.92 127.218V119.63C311.92 119.182 312.284 118.818 312.732 118.818H314.622C315.07 118.818 315.434 119.182 315.434 119.63V127.54C315.434 128.142 314.944 128.632 314.342 128.632Z" fill="white"/>
<path d="M317.87 128.912H317.03C316.148 128.912 315.434 128.198 315.434 127.316V119.616C315.434 119.168 315.798 118.804 316.246 118.804H318.136C318.584 118.804 318.948 119.168 318.948 119.616V127.82C318.948 128.422 318.458 128.912 317.87 128.912Z" fill="white"/>
<path d="M320.04 127.904H320.474C321.58 127.904 322.476 127.008 322.476 125.902V119.616C322.476 119.168 322.112 118.804 321.664 118.804H319.76C319.312 118.804 318.948 119.168 318.948 119.616V126.812C318.948 127.414 319.438 127.904 320.04 127.904Z" stroke="#66B0F0" stroke-width="4" stroke-miterlimit="10" stroke-linecap="round"/>
<path d="M314.342 128.632H313.334C312.55 128.632 311.92 128.002 311.92 127.218V119.63C311.92 119.182 312.284 118.818 312.732 118.818H314.622C315.07 118.818 315.434 119.182 315.434 119.63V127.54C315.434 128.142 314.944 128.632 314.342 128.632Z" stroke="#66B0F0" stroke-width="4" stroke-miterlimit="10" stroke-linecap="round"/>
<path d="M317.87 128.912H317.03C316.148 128.912 315.434 128.198 315.434 127.316V119.616C315.434 119.168 315.798 118.804 316.246 118.804H318.136C318.584 118.804 318.948 119.168 318.948 119.616V127.82C318.948 128.422 318.458 128.912 317.87 128.912Z" stroke="#66B0F0" stroke-width="4" stroke-miterlimit="10" stroke-linecap="round"/>
<path d="M346.038 111.454V121.674C346.038 123.438 343.028 124.88 339.318 124.88C335.608 124.88 332.598 123.438 332.598 121.674V111.454H346.038Z" fill="white"/>
<path d="M346.038 111.454C346.038 119.168 341.096 121.464 336.35 121.058C336.336 121.058 336.322 121.058 336.308 121.058C334.208 120.862 332.612 119.07 332.612 116.97V111.468H346.038V111.454Z" fill="#66B0F0"/>
<path d="M349.16 108.822V109.34C349.16 110.488 348.236 111.412 347.088 111.412H346.024L346.038 111.65C346.038 114.954 343.364 117.628 340.06 117.628H338.59C335.286 117.628 332.612 114.954 332.612 111.65L332.626 111.412H331.562C330.414 111.412 329.49 110.488 329.49 109.34V108.822C329.49 107.674 330.414 106.75 331.562 106.75H332.92L333.074 104.216C333.074 103.824 333.13 103.446 333.242 103.096C337.246 104.09 341.936 101.514 343.196 100.744C344.596 101.276 345.59 102.62 345.59 104.202L345.744 106.736H347.102C348.236 106.75 349.16 107.674 349.16 108.822Z" fill="white"/>
<path d="M347.186 106.75H345.73L345.576 104.216C345.576 102.634 344.582 101.29 343.182 100.758C341.922 101.514 337.232 104.09 333.228 103.11C333.116 103.46 333.06 103.838 333.06 104.23L332.906 106.764H331.996C331.996 106.764 330.134 97.748 331.968 96.096C333.326 94.878 345.758 97.538 347.13 99.428C347.9 100.506 347.186 106.75 347.186 106.75Z" fill="#E57281"/>
<path d="M343.686 106.204C343.644 106.204 343.588 106.19 343.546 106.148C343.532 106.134 342.622 105.392 341.166 105.392C341.054 105.392 340.956 105.294 340.956 105.182C340.956 105.07 341.054 104.972 341.166 104.972C342.776 104.972 343.77 105.784 343.812 105.826C343.896 105.896 343.91 106.036 343.84 106.12C343.812 106.176 343.742 106.204 343.686 106.204Z" fill="#66B0F0"/>
<path d="M338.366 110.544C338.338 110.544 338.31 110.544 338.296 110.53C338.184 110.488 338.128 110.362 338.17 110.264C338.562 109.228 338.464 107.926 337.918 106.778C337.596 106.078 337.134 105.574 336.728 105.434C335.832 105.126 334.572 105.56 334.558 105.56C334.446 105.602 334.334 105.546 334.292 105.434C334.25 105.322 334.306 105.21 334.418 105.168C334.474 105.154 335.818 104.692 336.854 105.042C337.372 105.224 337.904 105.798 338.282 106.61C338.87 107.856 338.968 109.284 338.548 110.432C338.534 110.488 338.45 110.544 338.366 110.544Z" fill="#66B0F0"/>
<path d="M341.124 112.77C341.138 112.882 341.04 112.98 340.928 112.994H340.914C340.802 112.994 340.718 112.91 340.704 112.798C340.69 112.658 340.662 112.518 340.62 112.392C340.018 112.686 339.472 112.784 339.024 112.784C338.142 112.784 337.61 112.42 337.582 112.392C337.484 112.322 337.47 112.196 337.526 112.098C337.596 112 337.722 111.986 337.82 112.042C337.848 112.056 338.296 112.364 339.024 112.364C339.416 112.364 339.892 112.28 340.438 112.014C340.354 111.874 340.27 111.79 340.27 111.79C340.186 111.706 340.2 111.566 340.284 111.496C340.368 111.426 340.508 111.426 340.578 111.51C340.606 111.552 341.082 112.084 341.124 112.77Z" fill="#66B0F0"/>
<path d="M341.88 108.769C342.073 108.757 342.21 108.434 342.186 108.049C342.162 107.663 341.986 107.36 341.793 107.372C341.6 107.384 341.463 107.706 341.487 108.092C341.511 108.478 341.687 108.781 341.88 108.769Z" fill="#66B0F0"/>
<path d="M336.164 108.713C336.342 108.702 336.468 108.405 336.446 108.05C336.423 107.695 336.262 107.416 336.084 107.427C335.907 107.438 335.781 107.735 335.803 108.09C335.825 108.445 335.987 108.724 336.164 108.713Z" fill="#66B0F0"/>
<path d="M332.248 109.494C332.136 109.494 332.038 109.396 332.038 109.284C332.038 108.668 331.534 108.178 330.932 108.178C330.82 108.178 330.722 108.08 330.722 107.968C330.722 107.856 330.82 107.758 330.932 107.758C331.772 107.758 332.458 108.444 332.458 109.284C332.458 109.41 332.36 109.494 332.248 109.494Z" fill="#66B0F0"/>
<path d="M346.332 109.494C346.22 109.494 346.122 109.396 346.122 109.284C346.122 108.444 346.808 107.758 347.648 107.758C347.76 107.758 347.858 107.856 347.858 107.968C347.858 108.08 347.76 108.178 347.648 108.178C347.032 108.178 346.542 108.682 346.542 109.284C346.542 109.41 346.458 109.494 346.332 109.494Z" fill="#66B0F0"/>
<path d="M599.76 419.44L539.798 221.172C538.608 217.224 534.954 214.522 530.824 214.522H166.894C162.722 214.522 159.054 217.28 157.892 221.298L100.674 419.44" stroke="#66B0F0" stroke-width="6" stroke-miterlimit="10"/>
<path d="M266.588 147.518H425.768" stroke="#66B0F0" stroke-width="6" stroke-miterlimit="10"/>
<path d="M321.832 177.646H359.436V209.944H321.832C321.832 209.944 321.832 176.428 321.832 177.646Z" fill="#FFCF2D"/>
<path d="M462.448 327.712L444.962 284.172H473.116L462.448 327.712Z" fill="#9A3B82"/>
<path d="M414.47 226.058C418.222 218.96 425.6 214.522 433.622 214.522H455.28L469.994 226.058H414.47Z" fill="#9A3B82"/>
<path d="M496.58 277.032H442.022L462.56 326.886C461.132 324.562 452.578 326.984 443.52 332.542C434.574 338.03 428.526 344.638 429.758 347.046L385.49 270.018C374.01 250.586 388.01 226.058 410.578 226.058H532.84L533.106 226.898C541.086 251.678 522.606 277.032 496.58 277.032Z" fill="#3FB1B5"/>
<path d="M534.954 240.352C534.758 244.902 533.75 249.298 532.042 253.372L467.922 226.072H531.566L533.05 230.412C534.086 233.016 534.66 236.67 534.954 240.352Z" fill="#E6E6E6"/>
<path d="M462.574 326.886C464.002 329.21 457.758 335.552 448.714 341.11C439.656 346.668 431.242 349.454 429.814 347.13C428.386 344.806 434.476 338.24 443.534 332.682C452.578 327.124 461.132 324.562 462.574 326.886Z" fill="#66B0F0"/>
<path d="M442.484 332.71L402.668 262.318C399.546 256.746 403.564 249.858 409.962 249.858H487.508C497.952 249.858 505.75 240.24 503.594 230.02" stroke="white" stroke-width="6" stroke-miterlimit="10" stroke-linecap="round"/>
<path d="M429.352 347.284C427.924 344.96 434.098 337.568 443.534 332.066C454.132 325.892 460.992 324.058 463.036 327.334" stroke="white" stroke-width="6" stroke-miterlimit="10" stroke-linecap="round"/>
<path d="M463.344 327.642L437.332 265.622" stroke="white" stroke-width="6" stroke-miterlimit="10" stroke-linecap="round"/>
<path d="M409.052 225.596H472.514" stroke="white" stroke-width="6" stroke-miterlimit="10"/>
<path d="M444.948 350.336L441.168 345.184L435.96 338.1C438.088 336.308 440.65 334.446 443.52 332.682C449.232 329.182 454.734 326.858 458.388 326.214L460.922 331.268L464.086 337.568C461.846 345.534 444.948 350.336 444.948 350.336Z" fill="#E57281"/>
<path d="M460.936 331.268C458.584 334.138 454.16 337.764 448.714 341.11C446.096 342.72 443.534 344.092 441.182 345.184L435.974 338.1C438.102 336.308 440.664 334.446 443.534 332.682C449.246 329.182 454.748 326.858 458.402 326.214L460.936 331.268Z" fill="#9A3B82"/>
<path d="M481.39 365.33L442.974 392.924C439.712 395.192 434.644 397.082 435.316 388.878C436.254 377.566 438.76 360.738 444.948 350.322C445.214 350.252 461.846 345.45 464.086 337.554L481.6 350C486.64 353.92 486.528 361.564 481.39 365.33Z" fill="white" stroke="#FFCF2D" stroke-width="6" stroke-miterlimit="10"/>
<path d="M443.17 353.976C446.222 354.55 463.358 348.474 466.018 339.108" stroke="#FFCF2D" stroke-width="6" stroke-miterlimit="10" stroke-linecap="round"/>
<path d="M439.04 390.082C439.04 390.082 464.114 355.25 481.95 357.21C501.368 359.324 423.164 410.396 439.04 390.082Z" fill="#FFCF2D"/>
<path d="M438.326 394.828C436.38 394.954 434.322 392.686 437.164 389.046C437.164 389.046 463.26 352.926 481.838 354.97C484.708 355.278 485.674 357.616 485.002 359.632" stroke="#FFCF2D" stroke-width="6" stroke-miterlimit="10" stroke-linecap="round"/>
<path d="M535.094 243.194C526.218 241.094 504.126 235.564 478.926 229.74C467.082 227.01 457.17 218.946 452.06 207.914L429.114 158.27L443.002 136.262C447.272 129.486 454.552 125.174 462.546 124.684L476.21 123.844C489.986 123.004 501.046 131.6 505.246 144.746L533.036 226.058C536.088 233.674 535.094 243.194 535.094 243.194Z" fill="white" stroke="#FE5244" stroke-width="3" stroke-miterlimit="10"/>
<path d="M441.196 161.056C441.196 161.056 448.504 172.536 465.15 175.07" stroke="#FE5244" stroke-width="3" stroke-miterlimit="10"/>
<path d="M451.052 140.168C450.296 139.356 448.966 139.58 448.504 140.574C447.986 141.694 448.924 142.94 450.142 142.758C451.388 142.576 451.906 141.078 451.052 140.168Z" fill="#FFCF2D" stroke="#FE5244" stroke-width="3" stroke-miterlimit="10" stroke-linejoin="round"/>
<path d="M485.926 164.094C485.17 163.282 483.84 163.506 483.378 164.5C482.86 165.62 483.798 166.866 485.016 166.684C486.262 166.502 486.78 165.004 485.926 164.094Z" fill="#FFCF2D" stroke="#FE5244" stroke-width="3" stroke-miterlimit="10" stroke-linejoin="round"/>
<path d="M496.972 173.894C496.216 173.082 494.886 173.306 494.424 174.3C493.906 175.42 494.844 176.666 496.062 176.484C497.294 176.316 497.812 174.818 496.972 173.894Z" fill="#FFCF2D" stroke="#FE5244" stroke-width="3" stroke-miterlimit="10" stroke-linejoin="round"/>
<path d="M518.154 229.348C517.398 228.536 516.068 228.76 515.606 229.754C515.088 230.874 516.026 232.12 517.244 231.938C518.476 231.756 518.994 230.272 518.154 229.348Z" fill="#FFCF2D" stroke="#FE5244" stroke-width="3" stroke-miterlimit="10" stroke-linejoin="round"/>
<path d="M506.296 202.846C505.54 202.034 504.21 202.258 503.748 203.252C503.23 204.372 504.168 205.618 505.386 205.436C506.632 205.254 507.15 203.756 506.296 202.846Z" fill="#FFCF2D" stroke="#FE5244" stroke-width="3" stroke-miterlimit="10" stroke-linejoin="round"/>
<path d="M511.21 183.778C510.118 183.918 509.516 185.136 510.062 186.088C510.678 187.166 512.232 187.124 512.792 186.018C513.366 184.898 512.442 183.61 511.21 183.778Z" fill="#FFCF2D" stroke="#FE5244" stroke-width="3" stroke-miterlimit="10" stroke-linejoin="round"/>
<path d="M520.156 212.058C519.064 212.198 518.462 213.416 519.008 214.368C519.624 215.446 521.178 215.404 521.738 214.298C522.312 213.178 521.402 211.89 520.156 212.058Z" fill="#FFCF2D" stroke="#FE5244" stroke-width="3" stroke-miterlimit="10" stroke-linejoin="round"/>
<path d="M483.056 181.552C482.3 180.74 480.97 180.964 480.508 181.958C479.99 183.078 480.928 184.324 482.146 184.142C483.378 183.96 483.896 182.476 483.056 181.552Z" fill="#FFCF2D" stroke="#FE5244" stroke-width="3" stroke-miterlimit="10" stroke-linejoin="round"/>
<path d="M475.342 197.414C474.586 196.602 473.256 196.826 472.794 197.82C472.276 198.94 473.214 200.186 474.432 200.004C475.678 199.822 476.196 198.324 475.342 197.414Z" fill="#FFCF2D" stroke="#FE5244" stroke-width="3" stroke-miterlimit="10" stroke-linejoin="round"/>
<path d="M461.538 191.87C462.35 191.114 462.126 189.784 461.132 189.322C460.012 188.804 458.766 189.742 458.948 190.96C459.13 192.192 460.614 192.71 461.538 191.87Z" fill="#FFCF2D" stroke="#FE5244" stroke-width="3" stroke-miterlimit="10" stroke-linejoin="round"/>
<path d="M473.788 219.17C474.6 218.414 474.376 217.084 473.382 216.622C472.262 216.104 471.016 217.042 471.198 218.26C471.38 219.506 472.878 220.024 473.788 219.17Z" fill="#FFCF2D" stroke="#FE5244" stroke-width="3" stroke-miterlimit="10" stroke-linejoin="round"/>
<path d="M494.41 195.748C495.222 194.992 494.998 193.662 494.004 193.2C492.884 192.682 491.638 193.62 491.82 194.838C492.002 196.07 493.5 196.602 494.41 195.748Z" fill="#FFCF2D" stroke="#FE5244" stroke-width="3" stroke-miterlimit="10" stroke-linejoin="round"/>
<path d="M501.452 225.064C502.264 224.308 502.04 222.978 501.046 222.516C499.926 221.998 498.68 222.936 498.862 224.154C499.03 225.4 500.528 225.918 501.452 225.064Z" fill="#FFCF2D" stroke="#FE5244" stroke-width="3" stroke-miterlimit="10" stroke-linejoin="round"/>
<path d="M459.228 165.69C458.472 164.878 457.142 165.102 456.68 166.096C456.162 167.216 457.1 168.462 458.318 168.28C459.564 168.098 460.082 166.6 459.228 165.69Z" fill="#FFCF2D" stroke="#FE5244" stroke-width="3" stroke-miterlimit="10" stroke-linejoin="round"/>
<path d="M461.734 129.374C460.978 128.562 459.648 128.786 459.186 129.78C458.668 130.9 459.606 132.146 460.824 131.964C462.07 131.782 462.588 130.284 461.734 129.374Z" fill="#FFCF2D" stroke="#FE5244" stroke-width="3" stroke-miterlimit="10" stroke-linejoin="round"/>
<path d="M485.926 129.374C485.17 128.562 483.84 128.786 483.378 129.78C482.86 130.9 483.798 132.146 485.016 131.964C486.262 131.782 486.78 130.284 485.926 129.374Z" fill="#FFCF2D" stroke="#FE5244" stroke-width="3" stroke-miterlimit="10" stroke-linejoin="round"/>
<path d="M485.968 145.054C484.946 145.46 484.652 146.776 485.422 147.574C486.276 148.456 487.774 148.05 488.054 146.846C488.334 145.628 487.13 144.592 485.968 145.054Z" fill="#FFCF2D" stroke="#FE5244" stroke-width="3" stroke-miterlimit="10" stroke-linejoin="round"/>
<path d="M472.22 136.122C471.156 136.43 470.75 137.704 471.422 138.572C472.192 139.538 473.718 139.272 474.11 138.11C474.516 136.92 473.41 135.772 472.22 136.122Z" fill="#FFCF2D" stroke="#FE5244" stroke-width="3" stroke-miterlimit="10" stroke-linejoin="round"/>
<path d="M470.19 174.902C469.098 175.028 468.482 176.232 469.014 177.198C469.616 178.276 471.17 178.262 471.744 177.17C472.332 176.064 471.436 174.762 470.19 174.902Z" fill="#FFCF2D" stroke="#FE5244" stroke-width="3" stroke-miterlimit="10" stroke-linejoin="round"/>
<path d="M458.192 204.064C457.1 204.19 456.484 205.394 457.016 206.36C457.618 207.438 459.172 207.424 459.746 206.332C460.334 205.226 459.438 203.924 458.192 204.064Z" fill="#FFCF2D" stroke="#FE5244" stroke-width="3" stroke-miterlimit="10" stroke-linejoin="round"/>
<path d="M462.224 147.686C461.16 147.994 460.754 149.268 461.426 150.136C462.196 151.102 463.722 150.836 464.114 149.674C464.52 148.498 463.428 147.35 462.224 147.686Z" fill="#FFCF2D" stroke="#FE5244" stroke-width="3" stroke-miterlimit="10" stroke-linejoin="round"/>
<path d="M473.816 155.526C472.752 155.834 472.346 157.108 473.018 157.976C473.788 158.942 475.314 158.676 475.706 157.514C476.112 156.324 475.02 155.176 473.816 155.526Z" fill="#FFCF2D" stroke="#FE5244" stroke-width="3" stroke-miterlimit="10" stroke-linejoin="round"/>
<path d="M448.714 155.19C449.414 154.336 449.036 153.048 447.972 152.726C446.796 152.362 445.676 153.454 446.026 154.63C446.376 155.834 447.916 156.156 448.714 155.19Z" fill="#FFCF2D" stroke="#FE5244" stroke-width="3" stroke-miterlimit="10" stroke-linejoin="round"/>
<path d="M501.788 155.232C502.488 154.378 502.11 153.09 501.046 152.768C499.87 152.404 498.75 153.496 499.1 154.672C499.436 155.876 500.99 156.198 501.788 155.232Z" fill="#FFCF2D" stroke="#FE5244" stroke-width="3" stroke-miterlimit="10" stroke-linejoin="round"/>
<path d="M488.32 211.988C489.02 211.134 488.642 209.846 487.578 209.524C486.402 209.16 485.282 210.252 485.632 211.428C485.968 212.618 487.522 212.94 488.32 211.988Z" fill="#FFCF2D" stroke="#FE5244" stroke-width="3" stroke-miterlimit="10" stroke-linejoin="round"/>
<path d="M477.148 123.382C476.84 123.396 476.532 123.41 476.21 123.424L462.546 124.264C459.06 124.474 455.728 125.412 452.704 126.966L448.504 114.394L467.222 100.674L477.148 123.382Z" fill="#E57281"/>
<path d="M452.648 126.77C456.54 125.006 459.648 121.87 461.412 117.978L468.216 102.928L467.222 100.66L448.504 114.38L452.648 126.77Z" fill="#9A3B82"/>
<path d="M468.426 101.934C468.426 103.236 467.894 104.412 467.04 105.266C466.186 106.12 465.01 106.652 463.708 106.652H459.592C457.968 112.966 451.682 117.292 444.92 116.102L441.826 115.556C438.438 114.954 436.128 111.79 436.604 108.388L440.23 90.23C440.86 86.352 444.85 83.986 448.56 85.316L454.566 87.724C457.814 88.844 459.998 91.896 459.998 95.326V97.076L463.708 97.216C466.312 97.216 468.426 99.33 468.426 101.934Z" fill="#E57281"/>
<path d="M461.454 102.844C461.454 101.038 462.91 99.582 464.716 99.582" stroke="#9A3B82" stroke-width="5" stroke-miterlimit="10" stroke-linecap="round"/>
<path d="M442.246 94.052C442.246 94.052 445.186 94.052 447.286 96.866" stroke="#9A3B82" stroke-width="5" stroke-miterlimit="10" stroke-linecap="round"/>
<path d="M444.2 99.2918C444.348 98.4778 444.159 97.7619 443.779 97.6928C443.399 97.6237 442.97 98.2275 442.823 99.0415C442.675 99.8555 442.863 100.571 443.243 100.641C443.624 100.71 444.052 100.106 444.2 99.2918Z" fill="#9A3B82"/>
<path d="M463.708 97.2161C466.312 97.2161 468.426 99.3301 468.426 101.934C468.426 101.948 468.426 101.976 468.426 102.004C470.526 98.7701 475.678 90.5381 475.678 87.7521C475.678 84.0141 471.016 80.2761 466.186 81.9841C466.508 81.7461 466.844 81.4941 467.194 81.2281C469.056 79.7721 470.036 78.6801 470.19 77.8961C470.246 77.6161 470.204 77.3641 470.064 77.1681C469.504 76.3701 468.888 76.0201 468.23 76.1321C467.264 76.2861 466.27 77.4761 465.276 79.6601C464.828 80.6541 464.478 81.6341 464.282 82.2361C463.89 79.8981 462 72.1561 453.88 73.3461C451.08 73.7521 449.764 74.9141 449.4 76.1881C447.076 74.3681 443.968 72.9401 441.392 74.2981C436.94 76.6361 437.486 80.4721 440.062 83.1881C437.626 83.1461 435.918 83.8601 435.918 85.9181C435.918 87.8081 437.864 88.7181 440.538 89.0821C443.212 89.4461 446.642 89.2501 449.61 88.9141C451.724 88.6761 453.628 88.3821 454.846 88.1721C454.034 89.8381 453.712 91.2661 453.782 92.4701C453.908 94.9621 455.714 96.4321 458.262 96.9501C458.808 97.0621 459.396 97.1321 459.998 97.1601L463.708 97.2161ZM468.314 76.6921C468.356 76.6781 468.398 76.6781 468.454 76.6781C468.846 76.6781 469.224 76.9581 469.602 77.4901C469.63 77.5461 469.672 77.6301 469.644 77.7841C469.42 78.9181 466.55 81.0741 464.884 82.2081C465.542 80.2761 466.928 76.9301 468.314 76.6921Z" fill="#FFCF2D"/>
<path d="M452.536 80.836C451.57 80.836 450.59 80.318 449.876 79.408C449.078 78.4 448.812 77.154 449.148 76.076C449.19 75.936 449.33 75.852 449.47 75.88C449.526 75.88 449.582 75.894 449.624 75.936C451.738 77.448 453.432 79.604 453.18 80.458C453.124 80.682 452.942 80.822 452.704 80.836C452.648 80.836 452.592 80.836 452.536 80.836ZM449.596 76.608C449.47 77.42 449.722 78.316 450.31 79.058C450.94 79.856 451.808 80.318 452.648 80.262C452.676 79.898 451.738 78.232 449.596 76.608Z" fill="white"/>
<path d="M424.9 204.456H335.3C333.088 204.456 331.758 202.02 332.934 200.158L344.862 181.426C346.416 178.99 349.09 177.52 351.974 177.52H412.622L424.9 204.456Z" fill="#E57281"/>
<path d="M353.948 177.534L361.088 165.774C361.508 165.074 362.278 164.64 363.09 164.64C364.924 164.64 366.044 166.642 365.092 168.21L359.422 177.534H353.948Z" fill="#FE5244"/>
<path d="M424.9 204.456H404.754C404.712 204.414 404.656 204.358 404.614 204.316C399.714 199.276 397.628 191.632 400.386 184.268L403.256 177.52H412.622L424.9 204.456Z" fill="#9A3B82"/>
<path d="M347.956 191.884H336.728C335.972 191.884 335.272 192.29 334.894 192.948L333.704 195.02C332.906 196.42 333.914 198.17 335.538 198.17H344.568C346.136 198.17 347.592 197.358 348.418 196.014L349.384 194.432C350.056 193.312 349.258 191.884 347.956 191.884Z" fill="#E57281"/>
<path d="M345.058 198.17H333.83C333.074 198.17 332.374 198.576 331.996 199.234L330.806 201.306C330.008 202.706 331.016 204.456 332.64 204.456H341.67C343.238 204.456 344.694 203.644 345.52 202.3L346.486 200.718C347.172 199.598 346.36 198.17 345.058 198.17Z" fill="#E57281"/>
<path d="M351.162 185.514H339.934C339.178 185.514 338.478 185.92 338.1 186.578L336.91 188.65C336.112 190.05 337.12 191.8 338.744 191.8H347.774C349.342 191.8 350.798 190.988 351.624 189.644L352.59 188.062C353.276 186.942 352.464 185.514 351.162 185.514Z" fill="#E57281"/>
<path d="M347.956 191.884H336.728C335.972 191.884 335.272 192.29 334.894 192.948L333.704 195.02C332.906 196.42 333.914 198.17 335.538 198.17H344.568C346.136 198.17 347.592 197.358 348.418 196.014L349.384 194.432C350.056 193.312 349.258 191.884 347.956 191.884Z" stroke="#9A3B82" stroke-width="5" stroke-miterlimit="10" stroke-linecap="round"/>
<path d="M345.058 198.17H333.83C333.074 198.17 332.374 198.576 331.996 199.234L330.806 201.306C330.008 202.706 331.016 204.456 332.64 204.456H341.67C343.238 204.456 344.694 203.644 345.52 202.3L346.486 200.718C347.172 199.598 346.36 198.17 345.058 198.17Z" stroke="#9A3B82" stroke-width="5" stroke-miterlimit="10" stroke-linecap="round"/>
<path d="M351.162 185.514H339.934C339.178 185.514 338.478 185.92 338.1 186.578L336.91 188.65C336.112 190.05 337.12 191.8 338.744 191.8H347.774C349.342 191.8 350.798 190.988 351.624 189.644L352.59 188.062C353.276 186.942 352.464 185.514 351.162 185.514Z" stroke="#9A3B82" stroke-width="5" stroke-miterlimit="10" stroke-linecap="round"/>
<path d="M367.416 194.88C364.042 194.88 360.794 193.662 358.246 191.436L353.99 187.712H350.07L349.062 188.79C347.256 190.722 345.03 191.828 342.384 191.828H340.508C339.528 191.828 338.926 190.736 339.458 189.91L344.176 182.518H367.43V194.88H367.416Z" fill="#E57281"/>
<path d="M344.176 182.518L339.458 189.91C338.926 190.736 339.528 191.828 340.508 191.828H342.384C345.03 191.828 347.256 190.736 349.062 188.79L350.07 187.712H353.99L358.246 191.436C360.78 193.648 364.042 194.88 367.416 194.88" stroke="#9A3B82" stroke-width="5" stroke-miterlimit="10" stroke-linecap="round"/>
<path d="M461.944 178.276L440.566 202.16C436.072 207.186 429.646 210.056 422.898 210.056C409.57 210.056 400.344 196.756 405.02 184.268L430.416 124.6L421.834 119.798C420.616 118.846 420.028 117.292 420.294 115.78L421.75 105.966C422.198 103.782 424.424 102.074 426.594 101.57L436.646 99.3021C437.5 99.1061 438.284 99.8341 438.144 100.688L436.688 108.262C436.114 111.958 438.606 115.15 442.302 115.78C445.326 116.298 447.454 119.336 447.174 122.388L440.328 165.088C440.314 165.116 447.328 176.05 461.944 178.276Z" fill="#E57281"/>
<path d="M445.55 132.538L437.29 186.172" stroke="#9A3B82" stroke-width="5" stroke-miterlimit="10" stroke-linecap="round"/>
<path d="M428.428 106.68L428.316 110.152C428.274 111.58 429.128 112.84 430.36 113.19L443.226 115.794" stroke="#9A3B82" stroke-width="5" stroke-miterlimit="10" stroke-linecap="round"/>
<path d="M451.976 116.914L441.686 115.542C438.298 114.94 435.988 111.776 436.464 108.374L437.794 100.772C437.92 100.058 437.276 99.4561 436.576 99.6241L426.076 102.074" stroke="#9A3B82" stroke-width="5" stroke-miterlimit="10" stroke-linecap="round"/>
<path d="M446.292 195.72L474.124 164.752" stroke="#FE5244" stroke-width="6" stroke-miterlimit="10"/>
<path d="M430.71 124.614H435.624" stroke="#9A3B82" stroke-width="5" stroke-miterlimit="10" stroke-linecap="round"/>
<path d="M428.442 107.604V108.724C428.442 110.054 429.408 111.146 430.598 111.146H432.138C432.81 111.146 433.342 110.544 433.342 109.788L433.44 102.48C433.454 101.346 432.25 100.646 431.27 100.884" stroke="#9A3B82" stroke-width="5" stroke-miterlimit="10" stroke-linecap="round"/>
<path d="M433.44 107.604V108.724C433.44 110.054 434.406 111.146 435.596 111.146H436.576" stroke="#9A3B82" stroke-width="5" stroke-miterlimit="10" stroke-linecap="round"/>
<path d="M526.414 284.172L542.668 419.44" stroke="#66B0F0" stroke-width="6" stroke-miterlimit="10"/>
<path d="M455.966 284.172L439.712 419.44" stroke="#66B0F0" stroke-width="6" stroke-miterlimit="10"/>
<path d="M445.284 372.988H537.082" stroke="#66B0F0" stroke-width="6" stroke-miterlimit="10"/>
<path d="M446.6 284.592H534.94C536.116 284.592 537.068 283.64 537.068 282.464V279.58C537.068 278.404 536.116 277.452 534.94 277.452H446.6C445.424 277.452 444.472 278.404 444.472 279.58V282.464C444.472 283.64 445.424 284.592 446.6 284.592Z" fill="white" stroke="#FFCF2D" stroke-width="6" stroke-miterlimit="10"/>
<path d="M299.6 182.224L286.076 210.056H245.21L261.632 182.224H299.6Z" fill="white" stroke="#3FB1B5" stroke-width="5" stroke-miterlimit="10"/>
<path d="M290.64 189.014C290.64 189.014 288.862 185.976 284.592 186.76C281.4 187.334 277.62 189.966 275.296 188.552C272.972 187.138 270.914 185.374 267.904 186.214C264.894 187.054 262.668 188.664 262.668 188.664" stroke="#3FB1B5" stroke-width="5" stroke-miterlimit="10"/>
<path d="M289.24 193.354C289.24 193.354 287.462 190.316 283.192 191.1C280 191.674 276.22 194.306 273.896 192.892C271.572 191.478 269.514 189.714 266.504 190.554C263.494 191.394 261.268 193.004 261.268 193.004" stroke="#3FB1B5" stroke-width="5" stroke-miterlimit="10"/>
<path d="M314.972 307.132C314.972 310.87 304.598 313.894 291.606 313.894C278.614 313.894 268.548 310.87 268.548 307.132C268.548 303.394 278.614 300.37 291.606 300.37C304.598 300.37 314.972 303.408 314.972 307.132Z" fill="#FE5244"/>
<path d="M308.994 302.582V350.882L307.524 343.91C305.942 336.406 299.32 331.044 291.648 331.044C289.338 331.044 287.07 331.534 285.012 332.458C284.942 332.486 284.872 332.528 284.788 332.556L279.398 312.9L276.402 301.966C280.504 300.972 285.81 300.37 291.606 300.37C298.494 300.37 304.696 301.224 308.994 302.582Z" fill="#A0505A"/>
<path d="M308.994 302.582V311.682C304.696 313.04 298.494 313.894 291.606 313.894C287.14 313.894 282.968 313.53 279.398 312.914L276.402 301.98C280.504 300.986 285.81 300.384 291.606 300.384C298.494 300.37 304.696 301.224 308.994 302.582Z" fill="#73325A"/>
<path d="M307.958 349.468C308.336 349.58 311.892 350.574 315.042 350.574C316.75 350.574 318.332 350.28 319.228 349.384C319.998 348.614 320.18 347.494 319.774 346.08C319.41 344.82 318.71 344.036 317.688 343.756C315.812 343.252 313.208 344.652 311.15 346.122C314.356 342.23 317.52 337.288 316.344 334.054C315.924 332.906 314.972 332.136 313.782 331.996C312.788 331.884 311.864 332.234 311.43 332.892C309.414 335.958 307.762 348.544 307.692 349.076L307.958 349.468ZM312.018 333.284C312.27 332.906 312.802 332.682 313.418 332.682C313.516 332.682 313.614 332.682 313.712 332.696C314.16 332.752 315.238 333.004 315.7 334.292C316.008 335.146 316.12 336.714 314.874 339.346C313.698 341.838 311.57 344.764 308.546 348.082C308.994 344.89 310.422 335.706 312.018 333.284ZM318.738 348.894C317.814 349.818 315.714 350.098 312.648 349.706C311.038 349.496 309.54 349.16 308.742 348.95C309.344 348.418 310.464 347.452 311.766 346.556C314.258 344.834 316.246 344.092 317.52 344.442C318.29 344.652 318.808 345.254 319.116 346.276C319.452 347.452 319.326 348.306 318.738 348.894Z" fill="#FFCF2D"/>
<path d="M279.538 336.476L276.304 340.102C272.636 344.218 272.034 350.21 274.82 354.97L289.058 379.386C291.844 384.16 296.954 387.086 302.47 387.086H308.364C312.634 387.086 315.812 383.166 314.93 378.994L307.51 343.924C305.928 336.42 299.306 331.058 291.634 331.058C287.028 331.044 282.618 333.018 279.538 336.476Z" fill="white" stroke="#3FB1B5" stroke-width="5" stroke-miterlimit="10"/>
<path d="M290.556 347.032L308.938 382.648C309.806 384.258 310.884 385.294 312.116 385.952C311.052 386.666 309.764 387.1 308.364 387.1H302.47C296.94 387.1 291.83 384.16 289.058 379.4L274.82 354.97C274.246 353.976 273.812 352.94 273.518 351.862C271.502 344.372 280.028 338.492 286.426 342.888C287.882 343.882 289.31 345.226 290.556 347.032Z" fill="#3FB1B5"/>
<path d="M290.598 347.116H273.63C273.714 346.85 273.812 346.598 273.924 346.36H290.052C290.22 346.584 290.388 346.808 290.556 347.046L290.598 347.116Z" fill="white"/>
<path d="M293.09 351.932H273.546C273.546 351.904 273.532 351.876 273.532 351.862C273.476 351.638 273.42 351.4 273.378 351.176H292.712L293.09 351.932Z" fill="white"/>
<path d="M295.582 356.762H275.87L275.422 355.992H295.19L295.582 356.762Z" fill="white"/>
<path d="M298.074 361.592H278.684L278.236 360.822H297.682L298.074 361.592Z" fill="white"/>
<path d="M300.566 366.408H281.498L281.05 365.652H300.174L300.566 366.408Z" fill="white"/>
<path d="M303.058 371.238H284.312L283.864 370.468H302.652L303.058 371.238Z" fill="white"/>
<path d="M305.55 376.068H287.126L286.678 375.298H305.144L305.55 376.068Z" fill="white"/>
<path d="M308.028 380.884H290.052C289.87 380.632 289.688 380.38 289.52 380.128H307.636L308.028 380.884Z" fill="white"/>
<path d="M311.71 385.714H296.086C295.582 385.49 295.092 385.238 294.616 384.958H310.702C311.024 385.238 311.36 385.49 311.71 385.714Z" fill="white"/>
<path d="M257.628 306.138C257.502 309.834 247.016 312.83 234.108 312.83C221.2 312.83 210.714 309.848 210.588 306.138V277.032H257.628V306.138Z" fill="#73325A"/>
<path d="M254.506 310.968L254.436 314.426L253.764 348.18V347.2C253.764 338.534 246.736 331.506 238.07 331.506H237.118C232.694 331.506 228.704 333.228 225.75 336L223.692 322.084L222.418 313.474C225.862 314.048 229.852 314.37 234.094 314.37C242.83 314.356 250.432 312.984 254.506 310.968Z" fill="#A0505A"/>
<path d="M254.506 310.968L254.436 314.426C249.228 318.122 233.142 322.672 223.706 322.07L222.432 313.46C225.876 314.02 229.866 314.356 234.108 314.356C242.83 314.356 250.432 312.984 254.506 310.968Z" fill="#73325A"/>
<path d="M238.784 387.548H241.388C248.22 387.548 253.764 382.004 253.764 375.172V347.2C253.764 338.534 246.736 331.506 238.07 331.506H237.118C227.038 331.506 219.268 340.396 220.626 350.392L223.916 374.584C224.938 382.004 231.28 387.548 238.784 387.548Z" fill="white" stroke="#3FB1B5" stroke-width="5" stroke-miterlimit="10"/>
<path d="M249.872 384.174C247.66 386.26 244.664 387.548 241.388 387.548H238.784C231.28 387.548 224.938 382.004 223.93 374.584L220.64 350.392C220.584 349.93 220.528 349.468 220.514 349.02C221.354 343.658 225.988 339.556 231.588 339.556C234.346 339.556 236.894 340.564 238.868 342.244C240.842 343.924 242.228 346.29 242.662 349.02L246.988 378.546C247.31 380.744 248.346 382.704 249.872 384.174Z" fill="#3FB1B5"/>
<path d="M241.36 345.282H221.802C221.942 345.016 222.11 344.764 222.278 344.526H240.898C241.066 344.764 241.22 345.016 241.36 345.282Z" fill="white"/>
<path d="M242.816 350.098H220.598C220.57 349.846 220.542 349.594 220.528 349.342H242.704L242.816 350.098Z" fill="white"/>
<path d="M243.53 354.928H221.256L221.144 354.172H243.418L243.53 354.928Z" fill="white"/>
<path d="M244.23 359.758H221.914L221.802 358.988H244.118L244.23 359.758Z" fill="white"/>
<path d="M244.944 364.574H222.572L222.46 363.818H244.832L244.944 364.574Z" fill="white"/>
<path d="M245.644 369.404H223.216L223.118 368.648H245.532L245.644 369.404Z" fill="white"/>
<path d="M246.358 374.234H223.874L223.776 373.464H246.246L246.358 374.234Z" fill="white"/>
<path d="M247.072 379.05H225.26C225.134 378.798 225.022 378.546 224.924 378.294H246.946L246.988 378.546C247.016 378.714 247.044 378.882 247.072 379.05Z" fill="white"/>
<path d="M249.578 383.88H228.956C228.676 383.642 228.396 383.376 228.144 383.124H248.934C249.13 383.39 249.354 383.642 249.578 383.88Z" fill="white"/>
<path d="M267.806 154.854V178.43C266.784 175.756 258.692 176.134 249.788 179.508C242.158 182.406 236.432 186.382 235.592 189.14V155.96C235.592 146.09 240.87 137.27 248.976 132.454C259.504 134.288 267.806 143.458 267.806 154.854Z" fill="#FFCF2D"/>
<path d="M234.976 133.518C227.808 138.502 223.244 146.776 223.244 155.96V183.33H183.386L188.888 159.642C191.226 149.548 198.534 141.498 208.054 138.068L234.976 133.518Z" fill="#FFCF2D"/>
<path d="M315.588 250.67V305.62C315.588 301.882 304.598 298.858 291.606 298.858C278.614 298.858 268.086 301.882 268.086 305.62V279.286C268.086 278.054 267.078 277.046 265.846 277.046H194.39C172.9 277.046 157.01 257.04 161.868 236.11L179.116 161.798C181.86 149.94 191.464 140.91 203.462 138.866L208.054 138.082C198.534 141.512 191.226 149.562 188.888 159.656L183.386 183.344H223.244V155.96C223.244 146.776 227.822 138.488 234.976 133.518L241.276 132.454C242.578 132.23 243.852 132.132 245.126 132.132C245.294 132.132 245.448 132.132 245.616 132.132C245.77 132.132 245.924 132.146 246.064 132.146C246.092 132.146 246.12 132.146 246.148 132.146C246.26 132.146 246.386 132.16 246.498 132.16C246.512 132.16 246.54 132.16 246.554 132.16C246.624 132.16 246.694 132.174 246.75 132.174C246.876 132.188 246.988 132.188 247.114 132.202C247.254 132.216 247.408 132.23 247.548 132.244C247.688 132.258 247.814 132.272 247.954 132.286C247.982 132.286 248.01 132.3 248.052 132.3C248.192 132.314 248.346 132.342 248.486 132.356C248.5 132.356 248.514 132.356 248.514 132.356C248.668 132.384 248.822 132.398 248.976 132.426C240.87 137.242 235.592 146.062 235.592 155.932V223.202H288.148C303.296 223.23 315.588 235.508 315.588 250.67Z" fill="#FE5244"/>
<path d="M235.886 132.902C228.718 137.886 223.23 146.776 223.23 155.96V183.33H183.372L188.874 159.642C191.212 149.548 197.904 141.344 207.438 137.914" stroke="white" stroke-width="6" stroke-miterlimit="10" stroke-linecap="round"/>
<path d="M268.086 270.844C268.086 263.046 270.844 255.5 275.87 249.55" stroke="white" stroke-width="6" stroke-miterlimit="10" stroke-linecap="round"/>
<path d="M209.86 268.058C209.79 268.058 209.72 268.044 209.664 268.002L207.816 266.994C207.606 266.882 207.536 266.63 207.648 266.42C207.76 266.21 208.012 266.14 208.222 266.252L210.07 267.26C210.28 267.372 210.35 267.624 210.238 267.834C210.154 267.974 210.014 268.058 209.86 268.058ZM211.708 267.582C211.554 267.582 211.414 267.498 211.344 267.358C211.232 267.148 211.302 266.896 211.512 266.784L213.36 265.776C213.57 265.664 213.822 265.748 213.934 265.944C214.046 266.154 213.976 266.406 213.766 266.518L211.918 267.526C211.848 267.554 211.778 267.582 211.708 267.582ZM206.164 266.056C206.094 266.056 206.024 266.042 205.968 266L204.12 264.992C203.91 264.88 203.84 264.628 203.952 264.418C204.064 264.208 204.316 264.138 204.526 264.25L206.374 265.258C206.584 265.37 206.654 265.622 206.542 265.832C206.458 265.972 206.318 266.056 206.164 266.056ZM215.39 265.566C215.236 265.566 215.096 265.482 215.026 265.342C214.914 265.132 214.984 264.88 215.194 264.768L217.042 263.76C217.364 263.592 217.658 263.396 217.952 263.186C218.134 263.046 218.4 263.088 218.54 263.27C218.68 263.452 218.638 263.718 218.456 263.858C218.134 264.096 217.798 264.306 217.448 264.502L215.6 265.51C215.53 265.552 215.46 265.566 215.39 265.566ZM202.51 263.984C202.426 263.984 202.342 263.956 202.258 263.9C201.67 263.466 201.124 262.962 200.662 262.388C200.508 262.206 200.536 261.94 200.718 261.8C200.9 261.646 201.166 261.674 201.306 261.856C201.726 262.374 202.216 262.822 202.748 263.214C202.93 263.354 202.972 263.62 202.846 263.802C202.776 263.928 202.65 263.984 202.51 263.984ZM219.716 262.514C219.618 262.514 219.534 262.486 219.45 262.416C219.268 262.276 219.24 262.01 219.394 261.828C219.814 261.31 220.164 260.75 220.444 260.134C220.542 259.924 220.794 259.826 221.004 259.924C221.214 260.022 221.312 260.274 221.214 260.484C220.906 261.156 220.514 261.786 220.052 262.346C219.954 262.458 219.842 262.514 219.716 262.514ZM199.878 260.778C199.724 260.778 199.57 260.694 199.5 260.54C199.192 259.868 198.968 259.168 198.828 258.44C198.786 258.216 198.94 257.992 199.164 257.95C199.388 257.908 199.612 258.062 199.654 258.286C199.78 258.944 199.976 259.574 200.256 260.176C200.354 260.386 200.256 260.638 200.046 260.736C199.99 260.764 199.934 260.778 199.878 260.778ZM221.452 258.734C221.424 258.734 221.396 258.734 221.382 258.734C221.158 258.692 221.004 258.468 221.046 258.244C221.13 257.782 221.172 257.32 221.172 256.858V256.228C221.172 255.99 221.354 255.808 221.592 255.808C221.83 255.808 222.012 255.99 222.012 256.228V256.858C222.012 257.376 221.97 257.894 221.872 258.398C221.83 258.594 221.648 258.734 221.452 258.734ZM199.108 256.69C198.87 256.69 198.688 256.508 198.688 256.27V254.17C198.688 253.932 198.87 253.75 199.108 253.75C199.346 253.75 199.528 253.932 199.528 254.17V256.27C199.528 256.494 199.332 256.69 199.108 256.69ZM221.578 254.548C221.34 254.548 221.158 254.366 221.158 254.128V252.028C221.158 251.79 221.34 251.608 221.578 251.608C221.816 251.608 221.998 251.79 221.998 252.028V254.128C221.998 254.366 221.816 254.548 221.578 254.548ZM199.108 252.49C198.87 252.49 198.688 252.308 198.688 252.07V249.97C198.688 249.732 198.87 249.55 199.108 249.55C199.346 249.55 199.528 249.732 199.528 249.97V252.07C199.528 252.294 199.332 252.49 199.108 252.49ZM221.578 250.348C221.34 250.348 221.158 250.166 221.158 249.928V247.828C221.158 247.59 221.34 247.408 221.578 247.408C221.816 247.408 221.998 247.59 221.998 247.828V249.928C221.998 250.166 221.816 250.348 221.578 250.348ZM199.108 248.29C198.87 248.29 198.688 248.108 198.688 247.87V245.77C198.688 245.532 198.87 245.35 199.108 245.35C199.346 245.35 199.528 245.532 199.528 245.77V247.87C199.528 248.094 199.332 248.29 199.108 248.29ZM221.578 246.148C221.34 246.148 221.158 245.966 221.158 245.728V243.628C221.158 243.39 221.34 243.208 221.578 243.208C221.816 243.208 221.998 243.39 221.998 243.628V245.728C221.998 245.966 221.816 246.148 221.578 246.148ZM199.108 244.09C198.87 244.09 198.688 243.908 198.688 243.67V241.864H199.822C200.06 241.864 200.242 242.046 200.242 242.284C200.242 242.522 200.06 242.704 199.822 242.704H199.528V243.67C199.528 243.894 199.332 244.09 199.108 244.09ZM220.822 242.704H218.722C218.484 242.704 218.302 242.522 218.302 242.284C218.302 242.046 218.484 241.864 218.722 241.864H220.822C221.06 241.864 221.242 242.046 221.242 242.284C221.242 242.522 221.06 242.704 220.822 242.704ZM216.622 242.704H214.522C214.284 242.704 214.102 242.522 214.102 242.284C214.102 242.046 214.284 241.864 214.522 241.864H216.622C216.86 241.864 217.042 242.046 217.042 242.284C217.042 242.522 216.86 242.704 216.622 242.704ZM212.422 242.704H210.322C210.084 242.704 209.902 242.522 209.902 242.284C209.902 242.046 210.084 241.864 210.322 241.864H212.422C212.66 241.864 212.842 242.046 212.842 242.284C212.842 242.522 212.66 242.704 212.422 242.704ZM208.222 242.704H206.122C205.884 242.704 205.702 242.522 205.702 242.284C205.702 242.046 205.884 241.864 206.122 241.864H208.222C208.46 241.864 208.642 242.046 208.642 242.284C208.642 242.522 208.46 242.704 208.222 242.704ZM204.022 242.704H201.922C201.684 242.704 201.502 242.522 201.502 242.284C201.502 242.046 201.684 241.864 201.922 241.864H204.022C204.26 241.864 204.442 242.046 204.442 242.284C204.442 242.522 204.26 242.704 204.022 242.704Z" fill="white"/>
<path d="M170.24 265.734C170.086 265.734 169.946 265.65 169.876 265.51C169.764 265.3 169.834 265.048 170.044 264.936L171.752 263.998C171.794 263.97 171.836 263.956 171.878 263.928C172.074 263.816 172.34 263.886 172.452 264.082C172.564 264.278 172.494 264.544 172.298 264.656C172.256 264.684 172.214 264.712 172.158 264.726L170.45 265.664C170.38 265.72 170.31 265.734 170.24 265.734ZM173.782 263.494C173.67 263.494 173.558 263.452 173.474 263.354C173.32 263.186 173.334 262.92 173.502 262.766C173.992 262.318 174.426 261.8 174.804 261.254C174.93 261.058 175.196 261.016 175.392 261.142C175.588 261.268 175.63 261.534 175.504 261.73C175.098 262.332 174.608 262.892 174.076 263.396C173.978 263.466 173.88 263.494 173.782 263.494ZM176.12 260.05C176.064 260.05 176.022 260.036 175.966 260.022C175.756 259.938 175.644 259.7 175.728 259.476C175.966 258.846 176.134 258.202 176.232 257.544C176.26 257.32 176.47 257.152 176.708 257.18C176.932 257.208 177.1 257.418 177.072 257.656C176.974 258.384 176.792 259.098 176.526 259.784C176.442 259.952 176.288 260.05 176.12 260.05ZM176.722 255.934C176.484 255.934 176.302 255.752 176.302 255.514V253.414C176.302 253.176 176.484 252.994 176.722 252.994C176.96 252.994 177.142 253.176 177.142 253.414V255.514C177.142 255.738 176.96 255.934 176.722 255.934ZM176.722 251.734C176.484 251.734 176.302 251.552 176.302 251.314V249.214C176.302 248.976 176.484 248.794 176.722 248.794C176.96 248.794 177.142 248.976 177.142 249.214V251.314C177.142 251.538 176.96 251.734 176.722 251.734ZM176.722 247.534C176.484 247.534 176.302 247.352 176.302 247.114V245.014C176.302 244.776 176.484 244.594 176.722 244.594C176.96 244.594 177.142 244.776 177.142 245.014V247.114C177.142 247.338 176.96 247.534 176.722 247.534ZM176.722 243.334C176.484 243.334 176.302 243.152 176.302 242.914V242.704H175.252C175.014 242.704 174.832 242.522 174.832 242.284C174.832 242.046 175.014 241.864 175.252 241.864H177.142V242.914C177.142 243.138 176.96 243.334 176.722 243.334ZM173.152 242.704H171.052C170.814 242.704 170.632 242.522 170.632 242.284C170.632 242.046 170.814 241.864 171.052 241.864H173.152C173.39 241.864 173.572 242.046 173.572 242.284C173.572 242.522 173.376 242.704 173.152 242.704ZM168.952 242.704H166.852C166.614 242.704 166.432 242.522 166.432 242.284C166.432 242.046 166.614 241.864 166.852 241.864H168.952C169.19 241.864 169.372 242.046 169.372 242.284C169.372 242.522 169.176 242.704 168.952 242.704ZM164.752 242.704H162.652C162.414 242.704 162.232 242.522 162.232 242.284C162.232 242.046 162.414 241.864 162.652 241.864H164.752C164.99 241.864 165.172 242.046 165.172 242.284C165.172 242.522 164.976 242.704 164.752 242.704Z" fill="white"/>
<path d="M267.806 178.43C268.828 181.104 262.36 185.85 253.47 189.224C244.58 192.598 236.614 193.116 235.592 190.428C234.57 187.74 240.884 182.896 249.788 179.522C258.692 176.148 266.784 175.742 267.806 178.43Z" fill="#FE5244"/>
<path d="M272.776 265.286V266.77C272.314 266.658 271.824 266.602 271.334 266.602H269.528C266.854 266.602 264.572 264.894 263.704 262.514L268.828 261.828C270.914 261.548 272.776 263.172 272.776 265.286Z" fill="#73325A"/>
<path d="M277.508 272.776V284.172C277.508 286.832 275.352 288.988 272.692 288.988H267.33C266 288.988 264.796 288.456 263.928 287.574C263.06 286.706 262.514 285.502 262.514 284.172H266C267.148 284.172 268.072 283.248 268.072 282.1V279.118C268.072 277.97 267.148 277.046 266 277.046H248.178C241.22 277.046 235.578 271.404 235.578 264.446V189.154C236.418 186.396 242.144 182.406 249.774 179.522C254.982 177.548 259.924 176.596 263.326 176.68V260.428C263.326 263.844 266.098 266.616 269.514 266.616H271.32C274.736 266.602 277.508 269.36 277.508 272.776Z" fill="#A0505A"/>
<path d="M263.326 176.666V184.282C260.792 185.99 257.362 187.74 253.456 189.21C244.552 192.584 236.6 193.102 235.578 190.414V189.14C236.418 186.382 242.144 182.392 249.774 179.508C254.996 177.534 259.924 176.582 263.326 176.666Z" fill="#73325A"/>
<path d="M240.044 119.952L234.78 133.518L207.648 138.376L214.732 119.952H240.044Z" fill="#A0505A"/>
<path d="M240.044 119.952L237.202 127.288L210.294 131.488L214.732 119.952H240.044Z" fill="#73325A"/>
<path d="M255.948 92.3441C255.948 94.1781 252.77 96.2081 249.102 97.9161C244.104 100.254 238.21 102.032 238.21 102.032L234.234 109.522C239.638 112.392 241.752 117.544 242.592 121.142C243.124 123.438 243.124 125.076 243.124 125.076H205.016C205.016 125.076 195.006 92.6521 219.128 84.8961C233.884 80.1501 255.948 87.9901 255.948 92.3441Z" fill="white" stroke="#FFCF2D" stroke-width="3" stroke-miterlimit="10" stroke-linecap="round"/>
<path d="M215.6 89.5161C220.835 89.5161 225.078 85.2726 225.078 80.0381C225.078 74.8035 220.835 70.5601 215.6 70.5601C210.366 70.5601 206.122 74.8035 206.122 80.0381C206.122 85.2726 210.366 89.5161 215.6 89.5161Z" fill="white" stroke="#FFCF2D" stroke-width="3" stroke-miterlimit="10" stroke-linecap="round"/>
<path d="M242.578 121.142C241.794 117.74 239.834 112.896 235.004 109.97H233.758C232.61 109.97 231.56 109.508 230.804 108.752C230.048 107.996 229.586 106.946 229.586 105.798C229.586 103.488 231.448 101.626 233.758 101.626L239.036 101.738H239.176C239.274 101.71 239.372 101.668 239.484 101.64C240.912 101.332 245.434 100.24 249.186 98.3641L249.62 100.954L251.02 109.256C251.972 114.954 248.066 120.204 242.578 121.142Z" fill="#A0505A"/>
<path d="M249.606 100.94C245.014 102.802 239.022 101.724 239.022 101.724C239.022 101.724 244.664 100.604 249.172 98.3501L249.606 100.94Z" fill="#73325A"/>
<path d="M237.006 106.596C237.006 105 235.718 103.712 234.122 103.712" stroke="#73325A" stroke-width="5" stroke-miterlimit="10" stroke-linecap="round"/>
<path d="M251.832 284.172L268.086 419.44" stroke="#66B0F0" stroke-width="6" stroke-miterlimit="10"/>
<path d="M181.37 284.172L165.13 419.44" stroke="#66B0F0" stroke-width="6" stroke-miterlimit="10"/>
<path d="M170.702 372.988H262.5" stroke="#66B0F0" stroke-width="6" stroke-miterlimit="10"/>
<path d="M167.244 284.172H265.958C267.134 284.172 268.086 283.22 268.086 282.044V279.16C268.086 277.984 267.134 277.032 265.958 277.032H167.244C166.068 277.032 165.116 277.984 165.116 279.16V282.044C165.13 283.22 166.082 284.172 167.244 284.172Z" fill="white" stroke="#FFCF2D" stroke-width="6" stroke-miterlimit="10"/>
</svg>
