<svg width="610" height="551" viewBox="0 0 610 551" fill="none" xmlns="http://www.w3.org/2000/svg">
<path d="M212.042 547.146H448.51" stroke="#FFCF2D" stroke-width="6" stroke-miterlimit="10" stroke-linecap="round"/>
<path d="M330.193 337.968V430.598C330.193 459.116 344.972 485.594 369.243 500.561L403.402 521.626" stroke="#66B0F0" stroke-width="6" stroke-miterlimit="10" stroke-linecap="round" stroke-linejoin="round"/>
<path d="M311.687 337.968V430.598C311.687 459.116 296.908 485.594 272.637 500.561L238.478 521.626" stroke="#66B0F0" stroke-width="6" stroke-miterlimit="10" stroke-linecap="round" stroke-linejoin="round"/>
<path d="M299.26 337.968H340.913C344.597 337.968 347.574 334.991 347.574 331.307V320.795H292.599V331.307C292.599 334.991 295.576 337.968 299.26 337.968Z" fill="white" stroke="#66B0F0" stroke-width="6" stroke-miterlimit="10"/>
<path d="M404.942 547.145C396.491 547.145 389.643 540.297 389.643 531.846C389.643 523.394 396.491 516.546 404.942 516.546C413.393 516.546 420.242 523.394 420.242 531.846C420.242 540.297 413.393 547.145 404.942 547.145Z" fill="white" stroke="#FFCF2D" stroke-width="6" stroke-miterlimit="10"/>
<path d="M238.145 547.145C229.694 547.145 222.845 540.297 222.845 531.846C222.845 523.394 229.694 516.546 238.145 516.546C246.596 516.546 253.445 523.394 253.445 531.846C253.445 540.297 246.596 547.145 238.145 547.145Z" fill="white" stroke="#FFCF2D" stroke-width="6" stroke-miterlimit="10"/>
<path d="M238.145 543.92C231.484 543.92 226.072 538.508 226.072 531.847C226.072 525.186 231.484 519.773 238.145 519.773C244.806 519.773 250.218 525.186 250.218 531.847C250.218 538.508 244.806 543.92 238.145 543.92Z" fill="white" stroke="#FFCF2D" stroke-width="6" stroke-miterlimit="10"/>
<path d="M404.88 543.92C398.219 543.92 392.807 538.508 392.807 531.847C392.807 525.186 398.219 519.773 404.88 519.773C411.541 519.773 416.953 525.186 416.953 531.847C416.953 538.508 411.541 543.92 404.88 543.92Z" fill="white" stroke="#FFCF2D" stroke-width="6" stroke-miterlimit="10"/>
<path d="M298.448 475.353C298.448 475.353 318.265 460.823 343.473 475.353" stroke="#66B0F0" stroke-width="6" stroke-miterlimit="10" stroke-linecap="round" stroke-linejoin="round"/>
<path d="M329.714 312.489L310.563 508.428H369.576L418.098 332.118C427.028 303.35 407.815 274.083 377.903 274.021H373.739C351.591 273.958 332.815 290.382 329.714 312.489Z" fill="#31A1A9"/>
<path d="M322.095 508.429H353.194L348.302 524.436C342.162 518.316 333.606 513.903 324.26 513.341C323.386 513.279 322.532 513.258 321.679 513.258L322.095 508.429Z" fill="#E57281"/>
<path d="M357.774 547.02C359.397 531.95 343.494 514.506 324.239 513.32C304.985 512.133 293.099 524.852 292.162 539.964C292.016 542.254 291.808 545.043 292.308 547.083L357.774 547.02Z" fill="white" stroke="#FE5244" stroke-width="3" stroke-miterlimit="10"/>
<path d="M292.724 541.548L357.774 542.318" stroke="#FE5244" stroke-width="6" stroke-miterlimit="10"/>
<path d="M346.491 508.429L395.721 478.454L285.647 294.047C271.721 271.961 236.376 265.134 214.082 278.706C188.374 294.359 183.337 329.559 203.611 351.79L346.491 508.429Z" fill="#3FB1B5"/>
<path d="M346.7 507.597L396.138 478.038L285.855 294.047C271.93 271.962 236.584 265.134 214.291 278.706C188.583 294.359 183.546 329.559 203.82 351.79L346.7 507.597Z" stroke="white" stroke-width="6" stroke-miterlimit="10"/>
<path d="M394.951 477.144C392.765 473.522 379.963 477.206 366.35 485.408C352.736 493.588 343.515 503.455 345.7 507.077C347.886 510.699 360.646 506.723 374.26 498.542C387.853 490.362 397.116 480.786 394.951 477.144Z" fill="#73325A"/>
<path d="M391.953 500.58L368.973 515.027L362.478 507.741L360.5 505.514L352.257 496.271C355.796 492.649 360.646 488.819 366.371 485.406C370.992 482.637 375.55 480.431 379.672 478.932L386.104 490.235L387.519 492.712L391.953 500.58Z" fill="#E57281"/>
<path d="M428.214 516.256L370.971 547.126C369.535 545.585 368.306 543.774 367.328 541.714C366.495 539.986 365.85 538.175 365.351 536.343C361.978 523.687 366.745 509.179 381.962 501.935C395.388 495.544 412.103 499.208 421.762 507.617C424.613 510.136 426.861 513.071 428.214 516.256Z" fill="white" stroke="#FE5244" stroke-width="3" stroke-miterlimit="10"/>
<path d="M427.093 513.334L369.829 544.204" stroke="#FE5244" stroke-width="4" stroke-miterlimit="10" stroke-linecap="round"/>
<path d="M386.062 490.215C382.773 492.962 378.735 495.835 374.218 498.541C369.389 501.455 364.643 503.828 360.459 505.514L351.799 496.272C355.338 492.65 360.604 488.82 366.329 485.406C370.95 482.638 375.509 480.223 379.63 478.724L386.062 490.215Z" fill="#9A3B82"/>
<path d="M393.681 473.938C391.495 470.316 377.674 473.917 363.831 482.243C349.988 490.57 341.204 500.332 343.39 503.954" stroke="white" stroke-width="6" stroke-miterlimit="10"/>
<path d="M585.311 320.795C590.744 320.795 595.157 316.382 595.157 310.949V273.273C595.157 267.84 590.744 263.427 585.311 263.427H37.7716C32.3386 263.427 27.9257 267.84 27.9257 273.273V310.949C27.9257 316.382 32.3386 320.795 37.7716 320.795H585.311Z" fill="#9A3B82"/>
<path d="M585.146 254.892H37.9179C32.485 254.892 28.072 259.305 28.072 264.738V302.414C28.072 307.847 32.485 312.26 37.9179 312.26H585.146C590.579 312.26 594.992 307.847 594.992 302.414V264.738C594.992 259.305 590.579 254.892 585.146 254.892Z" fill="white" stroke="#FFCF2D" stroke-width="6" stroke-miterlimit="10"/>
<path d="M556.648 312.303V547.23" stroke="#FFCF2D" stroke-width="6" stroke-miterlimit="10" stroke-linecap="round"/>
<path d="M78.9454 312.303V547.23" stroke="#FFCF2D" stroke-width="6" stroke-miterlimit="10" stroke-linecap="round"/>
<path d="M60.9605 488.759L60.0862 489.321L28.3213 440.383L18.7668 441.112C16.7268 441.278 15.1032 439.426 15.5195 437.407C15.9566 435.408 18.1839 434.367 19.9949 435.367L27.8425 439.675L22.0765 430.766L12.522 431.516C10.4821 431.682 8.85844 429.809 9.29557 427.81C9.7327 425.812 11.96 424.771 13.771 425.77L21.6186 430.059L15.8526 421.149L6.29811 421.899C4.25816 422.065 2.63451 420.192 3.07164 418.193C3.50877 416.195 5.73608 415.154 7.54706 416.154L15.3946 420.462L11.9184 415.113L5.46548 409.597C3.90429 408.264 4.07081 405.808 5.77771 404.684C7.50543 403.56 9.81598 404.413 10.3988 406.391L12.7926 414.53L16.373 420.046L15.6236 410.887C15.4571 408.847 17.3097 407.224 19.308 407.64C21.3063 408.056 22.3471 410.304 21.3688 412.094L16.7477 420.629L22.5969 429.642L21.8475 420.504C21.681 418.464 23.5336 416.84 25.5319 417.257C27.5302 417.673 28.571 419.921 27.5927 421.711L22.9716 430.246L28.8208 439.259L28.0715 430.121C27.9049 428.081 29.7575 426.437 31.7559 426.874C33.7542 427.29 34.795 429.538 33.8166 431.328L29.1955 439.863L60.9605 488.759Z" fill="#9A3B82"/>
<path d="M114.332 471.46C99.0743 502.205 78.4667 523.583 66.2894 522.105C65.2902 521.98 64.3535 521.709 63.4793 521.272C51.9056 515.527 55.9023 483.908 72.4301 450.644C79.5074 436.385 87.7297 424.166 95.723 415.278C106.402 403.433 116.664 397.543 123.283 400.831C134.857 406.577 130.839 438.196 114.332 471.46Z" fill="#9A3B82"/>
<path d="M95.2235 447.169C91.8305 486.136 79.3618 517.568 66.3103 522.106C65.3111 521.981 64.3744 521.71 63.5001 521.273C51.9265 515.528 55.9232 483.909 72.4509 450.645C79.5283 436.386 87.7506 424.167 95.7439 415.279C96.3267 425.083 96.2018 435.887 95.2235 447.169Z" fill="#FFCF2D"/>
<path d="M123.283 400.832L66.3103 522.105" stroke="#FFCF2D" stroke-width="6" stroke-miterlimit="10"/>
<path d="M122.201 490.755L114.145 493.461L108.775 497.229L117.892 496.147C119.932 495.897 121.618 497.687 121.285 499.706C120.931 501.725 118.745 502.849 116.893 501.934L108.192 497.625L99.3866 503.807L108.504 502.725C110.544 502.475 112.23 504.265 111.897 506.284C111.543 508.303 109.357 509.427 107.505 508.511L98.8037 504.202L90.0195 510.385L99.1368 509.302C101.177 509.053 102.863 510.843 102.509 512.862C102.155 514.881 99.9694 516.005 98.1168 515.089L89.4158 510.78L73.3252 522.083H71.5142L88.8538 509.906L87.7713 500.393C87.5424 498.353 89.3325 496.667 91.3517 497.021C93.3708 497.375 94.474 499.581 93.5581 501.413L89.5407 509.427L98.2209 503.328L97.1385 493.815C96.9095 491.775 98.6997 490.089 100.719 490.443C102.738 490.797 103.841 493.004 102.925 494.835L98.9286 502.829L107.609 496.73L106.526 487.217C106.297 485.177 108.088 483.491 110.107 483.845C112.126 484.198 113.229 486.405 112.313 488.237L108.296 496.251L113.521 492.587L118.787 485.926C120.057 484.323 122.534 484.386 123.7 486.072C124.928 487.758 124.157 490.11 122.201 490.755Z" fill="#FFCF2D"/>
<path d="M56.9014 520.482C55.8606 520.836 54.7574 521.086 53.6333 521.231C40.5193 522.938 22.4095 510.699 11.4604 492.11C-0.425433 471.919 0.656986 451.894 13.875 447.356C18.1631 445.878 23.2214 446.232 28.467 448.064C39.4161 451.873 51.2811 462.073 59.3161 475.707C71.1811 495.919 70.0987 515.944 56.9014 520.482Z" fill="white" stroke="#FFCF2D" stroke-width="6" stroke-miterlimit="10"/>
<path d="M56.9015 520.481C55.8607 520.835 54.7575 521.085 53.6334 521.23C41.5186 515.735 30.9858 492.463 28.7585 464.195C28.3214 458.616 28.2381 453.204 28.4671 448.063C39.4162 451.872 51.2813 462.072 59.3162 475.706C71.1812 495.918 70.0988 515.943 56.9015 520.481Z" fill="#FFCF2D"/>
<path d="M8.85852 450.291L53.6126 521.231" stroke="#FFCF2D" stroke-width="6" stroke-miterlimit="10"/>
<path d="M62.2303 522.938C76.7156 522.938 88.4582 487.998 88.4582 444.899C88.4582 401.799 76.7156 366.86 62.2303 366.86C47.745 366.86 36.0023 401.799 36.0023 444.899C36.0023 487.998 47.745 522.938 62.2303 522.938Z" fill="white" stroke="#FFCF2D" stroke-width="6" stroke-miterlimit="10"/>
<path d="M62.2303 366.84V522.938" stroke="#FFCF2D" stroke-width="6" stroke-miterlimit="10"/>
<path d="M78.9455 385.554L62.2304 407.951L48.0548 379.892" stroke="#FFCF2D" stroke-width="6" stroke-miterlimit="10" stroke-linecap="round"/>
<path d="M84.3784 404.537L62.0638 435.219L41.9973 396.398" stroke="#FFCF2D" stroke-width="6" stroke-miterlimit="10" stroke-linecap="round"/>
<path d="M87.8546 426.434L61.8556 462.279L38.1047 416.484" stroke="#FFCF2D" stroke-width="6" stroke-miterlimit="10" stroke-linecap="round"/>
<path d="M89.4783 455.661L61.9805 494.128L36.0648 444.961" stroke="#FFCF2D" stroke-width="6" stroke-miterlimit="10" stroke-linecap="round"/>
<path d="M101.114 547.23H23.2839C17.2889 547.23 12.418 542.36 12.418 536.365V532.972C12.418 526.977 17.2889 522.106 23.2839 522.106H101.114C107.109 522.106 111.98 526.977 111.98 532.972V536.365C111.98 542.38 107.109 547.23 101.114 547.23Z" fill="white" stroke="#66B0F0" stroke-width="6" stroke-miterlimit="10"/>
<path d="M559.313 276.769C559.313 279.871 556.836 282.389 553.796 282.389H469.014C465.954 282.389 463.497 279.871 463.497 276.769C463.497 273.667 465.974 271.149 469.014 271.149H553.796C556.836 271.149 559.313 273.667 559.313 276.769Z" fill="#FE5244"/>
<path d="M523.53 218.233H488.83V242.38H555.857C551.611 228.058 538.455 218.233 523.53 218.233Z" fill="white" stroke="#FFCF2D" stroke-width="6" stroke-miterlimit="10"/>
<path d="M495.075 218.233V242.38L480.712 242.401V218.233H495.075Z" fill="#FFCF2D" stroke="#FFCF2D" stroke-width="6" stroke-miterlimit="10"/>
<path d="M609 241.902L555.857 242.381C555.857 242.381 569.159 224.354 605.669 229.121C605.669 229.121 577.11 223.168 548.135 229.121" stroke="#FFCF2D" stroke-width="6" stroke-miterlimit="10"/>
<path d="M555.857 242.382C555.857 242.382 579.15 229.58 607.543 235.783" stroke="#FFCF2D" stroke-width="6" stroke-miterlimit="10"/>
<path d="M561.79 262.136C561.79 264.405 562.144 266.466 562.706 267.985H537.206C535.895 267.985 534.812 266.84 534.812 265.446V258.847C534.812 257.432 535.874 256.308 537.206 256.308H562.706C562.144 257.806 561.79 259.867 561.79 262.136Z" fill="#FFCF2D"/>
<path d="M534.833 258.847V265.446C534.833 266.861 535.978 267.985 537.373 267.985H564.766V268.464C564.766 269.63 563.83 270.567 562.664 270.567H466.849C465.683 270.567 464.746 269.63 464.746 268.464V255.808C464.746 254.643 465.683 253.706 466.849 253.706H562.664C563.83 253.706 564.766 254.643 564.766 255.808V256.287H537.373C535.978 256.308 534.833 257.432 534.833 258.847Z" fill="white"/>
<path d="M534.833 258.847V265.446C534.833 266.861 535.978 267.985 537.373 267.985H564.766V268.464C564.766 269.63 563.83 270.567 562.664 270.567H466.849C465.683 270.567 464.746 269.63 464.746 268.464V255.808C464.746 254.643 465.683 253.706 466.849 253.706H562.664C563.83 253.706 564.766 254.643 564.766 255.808V256.287H537.373C535.978 256.308 534.833 257.432 534.833 258.847Z" stroke="#FFCF2D" stroke-width="6" stroke-miterlimit="10"/>
<path d="M499.134 286.907C498.135 287.843 497.51 289.55 497.51 290.987C497.51 293.838 500.008 296.773 503.089 296.773H579.858C579.858 298.106 578.775 299.209 577.422 299.209H484.771C482.294 299.209 480.046 298.272 478.422 296.773C476.799 295.275 475.779 293.193 475.779 290.882C475.779 286.282 479.796 282.556 484.771 282.556H577.422C578.755 282.556 579.858 283.639 579.858 284.992V285.429H503.089C501.528 285.408 500.133 285.991 499.134 286.907Z" fill="#FFCF2D"/>
<path d="M574.3 285.408V296.565H579.837V297.502H502.818C501.965 297.502 501.132 297.335 500.383 297.023C499.571 296.69 498.822 296.211 498.218 295.587C497.032 294.4 496.303 292.776 496.303 290.986C496.303 287.385 499.217 284.471 502.818 284.471H579.837V285.408H574.3Z" fill="#FE5244"/>
<path d="M576.444 285.406V296.564H503.089C500.008 296.564 497.51 294.066 497.51 290.985C497.51 289.445 498.135 288.05 499.134 287.03C500.133 286.031 501.528 285.406 503.068 285.406H576.444Z" fill="white"/>
<path d="M576.444 285.406V296.564" stroke="#FE5244" stroke-width="5" stroke-miterlimit="10"/>
<path d="M513.31 293.317V302.622H506.878V294.504C506.878 292.568 505.316 290.986 503.36 290.986H500.487V289.8H509.792C511.748 289.8 513.31 291.382 513.31 293.317Z" fill="#FE5244"/>
<path d="M580.149 242.901H470.783C467.952 242.901 465.662 245.191 465.662 248.022C465.683 250.832 467.952 253.121 470.783 253.121H580.149C582.98 253.121 585.27 250.832 585.27 248.001C585.249 245.191 582.96 242.901 580.149 242.901Z" fill="#66B0F0"/>
<path d="M555.337 253.143H554.234C554.358 253.476 554.671 254.309 555.358 254.309C555.774 254.309 557.814 253.997 557.814 248.023C557.814 245.899 557.564 244.276 557.064 243.172C556.461 241.861 555.67 241.715 555.378 241.715C554.671 241.715 554.358 242.569 554.234 242.902H555.337C555.378 242.819 555.42 242.777 555.441 242.756C555.815 242.86 556.815 243.901 556.815 248.023C556.815 252.144 555.815 253.164 555.441 253.289C555.399 253.247 555.358 253.206 555.337 253.143Z" fill="#9A3B82"/>
<path d="M564.371 253.143H563.268C563.393 253.476 563.705 254.309 564.392 254.309C564.808 254.309 566.848 253.997 566.848 248.023C566.848 245.899 566.598 244.276 566.099 243.172C565.495 241.861 564.704 241.715 564.413 241.715C563.705 241.715 563.393 242.569 563.268 242.902H564.371C564.413 242.819 564.454 242.777 564.475 242.756C564.85 242.86 565.849 243.901 565.849 248.023C565.849 252.144 564.85 253.164 564.475 253.289C564.454 253.247 564.413 253.206 564.371 253.143Z" fill="#9A3B82"/>
<path d="M573.426 253.144H572.322C572.447 253.477 572.76 254.31 573.447 254.31C574.029 254.31 575.903 253.852 575.903 248.024C575.903 242.174 574.029 241.737 573.447 241.737C572.739 241.737 572.427 242.591 572.302 242.924H573.405C573.447 242.841 573.488 242.799 573.509 242.778C573.925 242.882 574.883 243.965 574.883 248.045C574.883 250.542 574.529 251.833 574.217 252.499C573.967 253.04 573.696 253.269 573.509 253.311C573.488 253.248 573.467 253.207 573.426 253.144Z" fill="#9A3B82"/>
<path d="M528.172 253.144H527.069C527.194 253.477 527.506 254.31 528.193 254.31C528.609 254.31 530.649 253.998 530.649 248.024C530.649 242.174 528.776 241.737 528.193 241.737C527.485 241.737 527.173 242.591 527.048 242.924H528.151C528.193 242.841 528.235 242.799 528.255 242.778C528.672 242.882 529.629 243.965 529.629 248.045C529.629 252.166 528.63 253.186 528.255 253.311C528.255 253.248 528.214 253.207 528.172 253.144Z" fill="#9A3B82"/>
<path d="M537.227 253.144H536.124C536.249 253.477 536.561 254.31 537.248 254.31C537.643 254.31 538.372 254.144 538.934 252.978C539.433 251.916 539.704 250.251 539.704 248.024C539.704 245.796 539.454 244.131 538.934 243.07C538.372 241.904 537.643 241.737 537.248 241.737C536.54 241.737 536.228 242.591 536.103 242.924H537.206C537.248 242.841 537.289 242.799 537.31 242.778C537.56 242.82 537.81 243.09 538.018 243.527C538.309 244.152 538.684 245.443 538.684 248.045C538.684 250.626 538.33 251.916 538.018 252.562C537.81 252.999 537.539 253.269 537.31 253.311C537.289 253.248 537.269 253.207 537.227 253.144Z" fill="#9A3B82"/>
<path d="M546.282 253.144H545.179C545.304 253.477 545.616 254.31 546.303 254.31C546.886 254.31 548.759 253.852 548.759 248.024C548.759 242.029 546.719 241.737 546.303 241.737C545.595 241.737 545.283 242.591 545.158 242.924H546.261C546.303 242.841 546.344 242.799 546.365 242.778C546.74 242.882 547.739 243.923 547.739 248.045C547.739 252.124 546.781 253.207 546.365 253.311C546.344 253.248 546.324 253.207 546.282 253.144Z" fill="#9A3B82"/>
<path d="M501.028 253.144H499.925C500.05 253.477 500.362 254.31 501.049 254.31C501.361 254.31 502.152 254.164 502.735 252.853C503.235 251.77 503.485 250.126 503.485 248.002C503.485 246.046 503.214 244.401 502.735 243.277C502.298 242.278 501.674 241.695 501.028 241.695C500.321 241.695 500.008 242.549 499.883 242.882H500.987C501.028 242.819 501.049 242.757 501.07 242.736C501.195 242.799 501.486 243.028 501.778 243.694C502.09 244.381 502.444 245.692 502.444 247.982C502.444 252.103 501.445 253.123 501.07 253.248C501.091 253.248 501.07 253.206 501.028 253.144Z" fill="#9A3B82"/>
<path d="M510.083 253.143H508.98C509.105 253.476 509.417 254.309 510.104 254.309C510.416 254.309 511.207 254.163 511.79 252.852C512.29 251.769 512.54 250.125 512.54 248.002C512.54 242.152 510.666 241.715 510.083 241.715C509.375 241.715 509.063 242.569 508.938 242.902H510.042C510.083 242.819 510.125 242.777 510.146 242.756C510.562 242.86 511.519 243.943 511.519 248.023C511.519 252.144 510.52 253.164 510.146 253.289C510.146 253.247 510.125 253.206 510.083 253.143Z" fill="#9A3B82"/>
<path d="M519.138 253.144H518.035C518.16 253.477 518.472 254.31 519.159 254.31C519.742 254.31 521.615 253.852 521.615 248.024C521.615 245.796 521.365 244.131 520.845 243.07C520.283 241.904 519.554 241.737 519.159 241.737C518.451 241.737 518.139 242.591 518.014 242.924H519.117C519.159 242.841 519.201 242.799 519.221 242.778C519.471 242.82 519.721 243.09 519.929 243.527C520.221 244.152 520.595 245.443 520.595 248.045C520.595 252.124 519.638 253.207 519.221 253.311C519.201 253.248 519.159 253.207 519.138 253.144Z" fill="#9A3B82"/>
<path d="M473.884 253.143H472.781C472.906 253.476 473.218 254.309 473.905 254.309C474.551 254.309 475.154 253.726 475.612 252.727C476.112 251.603 476.362 249.979 476.362 248.001C476.362 245.691 475.945 244.234 475.612 243.422C475.154 242.34 474.53 241.715 473.905 241.715C473.198 241.715 472.885 242.569 472.76 242.902H473.864C473.905 242.839 473.926 242.798 473.947 242.756C474.093 242.839 474.405 243.131 474.696 243.922C474.988 244.65 475.321 245.941 475.321 248.001C475.321 250.312 474.967 251.603 474.655 252.31C474.363 252.976 474.072 253.205 473.947 253.268C473.947 253.247 473.905 253.205 473.884 253.143Z" fill="#9A3B82"/>
<path d="M482.918 253.143H481.815C481.94 253.476 482.252 254.309 482.939 254.309C483.585 254.309 484.188 253.726 484.646 252.727C485.146 251.603 485.396 249.979 485.396 248.002C485.396 243.922 484.126 241.715 482.939 241.715C482.232 241.715 481.919 242.569 481.794 242.902H482.898C482.939 242.839 482.96 242.798 482.981 242.756C483.127 242.839 483.418 243.131 483.73 243.88C484.022 244.588 484.355 245.899 484.355 248.002C484.355 250.312 484.001 251.603 483.689 252.311C483.397 252.977 483.106 253.206 482.981 253.268C482.981 253.247 482.96 253.206 482.918 253.143Z" fill="#9A3B82"/>
<path d="M491.973 253.143H490.87C490.995 253.476 491.307 254.309 491.994 254.309C492.306 254.309 493.077 254.163 493.701 252.769C494.201 251.644 494.45 250.042 494.45 248.023C494.45 246.066 494.18 244.421 493.701 243.297C493.264 242.298 492.64 241.715 491.994 241.715C491.286 241.715 490.974 242.569 490.849 242.902H491.953C491.994 242.839 492.015 242.777 492.036 242.756C492.161 242.819 492.452 243.048 492.744 243.714C493.056 244.401 493.41 245.712 493.41 248.002C493.41 250.354 493.056 251.644 492.744 252.331C492.452 252.977 492.161 253.206 492.036 253.247C492.036 253.247 492.015 253.206 491.973 253.143Z" fill="#9A3B82"/>
<path d="M541.515 96.5871H468.535C464.309 96.5871 460.895 93.1733 460.895 88.9476V15.9673C460.895 11.7417 464.309 8.32788 468.535 8.32788H541.515C545.741 8.32788 549.154 11.7417 549.154 15.9673V88.9476C549.154 93.1733 545.72 96.5871 541.515 96.5871Z" fill="#FFCF2D"/>
<path d="M536.186 91.6955H461.77C457.544 91.6955 454.13 88.2817 454.13 84.056V9.63942C454.13 5.4138 457.544 2 461.77 2H536.186C540.412 2 543.826 5.4138 543.826 9.63942V84.056C543.826 88.2817 540.412 91.6955 536.186 91.6955Z" fill="white" stroke="#FFCF2D" stroke-width="3" stroke-miterlimit="10"/>
<path d="M498.988 81.1828C517.957 81.1828 533.334 65.8055 533.334 46.8366C533.334 27.8678 517.957 12.4905 498.988 12.4905C480.02 12.4905 464.642 27.8678 464.642 46.8366C464.642 65.8055 480.02 81.1828 498.988 81.1828Z" stroke="#FFCF2D" stroke-width="3" stroke-miterlimit="10"/>
<path d="M479.671 32.1008L498.988 46.8384L494.242 32.2882" stroke="#FFCF2D" stroke-width="3" stroke-miterlimit="10" stroke-linecap="round"/>
<path d="M437.831 312.262H378.985L354.277 282.578H411.708L437.831 312.262Z" fill="#FFCF2D"/>
<path d="M469.7 313.8V332.118L423.073 332.305C417.099 332.326 412.249 327.496 412.249 321.522V315.84C412.249 312.051 410.854 308.408 408.356 305.598L392.973 288.321H450.404L465.1 302.83C468.056 305.723 469.7 309.657 469.7 313.8Z" fill="white" stroke="#66B0F0" stroke-width="6" stroke-miterlimit="10"/>
<path d="M490.683 325.665C488.705 329.62 484.625 332.326 479.9 332.326H422.448C427.153 332.326 431.233 329.62 433.231 325.665H490.683Z" fill="white" stroke="#66B0F0" stroke-width="6" stroke-miterlimit="10"/>
<path d="M455.067 211.576L420.013 150.002C411.645 135.286 396.012 126.21 379.089 126.21H247.804L252.404 116.281C252.029 117.093 250.052 117.301 247.033 116.884C242.412 116.26 235.377 114.241 227.883 110.91C223.595 109.016 219.702 107.039 216.476 105.207C210.377 101.731 206.692 98.6914 207.296 97.3384L140.269 207.267C125.552 228.728 140.914 257.891 166.934 257.891C170.431 257.891 173.887 257.329 177.175 256.226C180.464 255.122 183.566 253.499 186.355 251.396L237.833 212.7C240.934 210.368 245.368 212.179 245.993 215.989L252.716 257.891H428.11C451.903 257.912 466.828 232.225 455.067 211.576ZM377.049 216.384L382.669 203.603C383.627 201.418 386.708 201.376 387.707 203.541L393.806 216.405H377.049V216.384Z" fill="#FE5244"/>
<path d="M268.703 126.166C268.703 115.404 290.913 102.103 317.849 98.7099C358.252 93.6516 366.995 115.404 366.995 126.166" stroke="#FE5244" stroke-width="6" stroke-miterlimit="10"/>
<path d="M362.332 126.353C362.332 135.991 317.849 155.724 317.849 155.724C317.849 155.724 273.365 135.991 273.365 126.353C273.365 116.715 294.514 105.558 318.89 102.581C353.964 98.2931 362.332 116.694 362.332 126.353Z" fill="#FE5244"/>
<path d="M362.332 126.354C362.332 135.992 317.849 155.726 317.849 155.726C317.849 155.726 273.365 135.992 273.365 126.354C273.365 126.313 273.365 126.271 273.365 126.229H362.332C362.332 126.25 362.332 126.292 362.332 126.354Z" fill="white"/>
<path d="M366.974 126.146C366.974 136.783 317.849 160.971 317.849 160.971C317.849 160.971 268.724 136.803 268.724 126.146" stroke="white" stroke-width="6" stroke-miterlimit="10"/>
<path d="M355.755 257.432C358.502 257.432 360.729 248.335 360.729 237.136C360.729 225.937 358.502 216.841 355.755 216.841" stroke="white" stroke-width="5" stroke-miterlimit="10" stroke-linecap="round"/>
<path d="M251.384 120.359L212.854 197.399" stroke="white" stroke-width="5" stroke-miterlimit="10"/>
<path d="M243.016 195.63L249.386 237.553" stroke="white" stroke-width="5" stroke-miterlimit="10" stroke-linecap="round"/>
<path d="M315.767 165.903H319.93" stroke="white" stroke-width="5" stroke-miterlimit="10" stroke-linecap="round"/>
<path d="M315.767 170.858H319.93" stroke="white" stroke-width="5" stroke-miterlimit="10" stroke-linecap="round"/>
<path d="M315.767 175.791H319.93" stroke="white" stroke-width="5" stroke-miterlimit="10" stroke-linecap="round"/>
<path d="M315.767 180.724H319.93" stroke="white" stroke-width="5" stroke-miterlimit="10" stroke-linecap="round"/>
<path d="M315.767 185.658H319.93" stroke="white" stroke-width="5" stroke-miterlimit="10" stroke-linecap="round"/>
<path d="M315.767 190.612H319.93" stroke="white" stroke-width="5" stroke-miterlimit="10" stroke-linecap="round"/>
<path d="M315.767 190.842H319.93" stroke="white" stroke-width="5" stroke-miterlimit="10" stroke-linecap="round"/>
<path d="M315.767 195.775H319.93" stroke="white" stroke-width="5" stroke-miterlimit="10" stroke-linecap="round"/>
<path d="M315.767 200.709H319.93" stroke="white" stroke-width="5" stroke-miterlimit="10" stroke-linecap="round"/>
<path d="M315.767 205.412H319.93" stroke="white" stroke-width="5" stroke-miterlimit="10" stroke-linecap="round"/>
<path d="M315.767 210.367H319.93" stroke="white" stroke-width="5" stroke-miterlimit="10" stroke-linecap="round"/>
<path d="M315.767 215.299H319.93" stroke="white" stroke-width="5" stroke-miterlimit="10" stroke-linecap="round"/>
<path d="M315.767 220.234H319.93" stroke="white" stroke-width="5" stroke-miterlimit="10" stroke-linecap="round"/>
<path d="M315.767 225.167H319.93" stroke="white" stroke-width="5" stroke-miterlimit="10" stroke-linecap="round"/>
<path d="M315.767 230.121H319.93" stroke="white" stroke-width="5" stroke-miterlimit="10" stroke-linecap="round"/>
<path d="M315.767 235.054H319.93" stroke="white" stroke-width="5" stroke-miterlimit="10" stroke-linecap="round"/>
<path d="M315.767 239.988H319.93" stroke="white" stroke-width="5" stroke-miterlimit="10" stroke-linecap="round"/>
<path d="M315.767 244.92H319.93" stroke="white" stroke-width="5" stroke-miterlimit="10" stroke-linecap="round"/>
<path d="M315.767 245.169H319.93" stroke="white" stroke-width="5" stroke-miterlimit="10" stroke-linecap="round"/>
<path d="M315.767 250.105H319.93" stroke="white" stroke-width="5" stroke-miterlimit="10" stroke-linecap="round"/>
<path d="M315.767 255.038H319.93" stroke="white" stroke-width="5" stroke-miterlimit="10" stroke-linecap="round"/>
<path d="M315.33 159.182V237.553" stroke="white" stroke-width="5" stroke-miterlimit="10"/>
<path d="M353.34 216.798H403.402" stroke="white" stroke-width="5" stroke-miterlimit="10" stroke-linecap="round"/>
<path d="M214.04 298.711H373.885L358.856 258.057H231.359L214.04 298.711Z" fill="white" stroke="#66B0F0" stroke-width="6" stroke-miterlimit="10"/>
<path d="M214.04 298.711C214.04 292.966 229.277 282.579 254.027 281.164C280.526 279.665 294.41 296.318 294.015 298.711H214.04Z" fill="#66B0F0"/>
<path d="M293.994 298.71C293.994 298.71 286.958 265.821 225.198 272.524L238.54 240.072C238.54 240.072 289.123 230.872 294.015 258.057L293.994 298.71Z" fill="white" stroke="#66B0F0" stroke-width="3" stroke-miterlimit="10" stroke-linejoin="round"/>
<path d="M372.948 296.149C369.264 291.049 355.068 285.721 333.919 284.513C308.773 283.077 294.993 295.025 293.994 298.273V258.056C293.994 258.056 311.937 237.574 358.856 258.056L372.948 296.149Z" fill="white" stroke="#66B0F0" stroke-width="6" stroke-miterlimit="10" stroke-linejoin="round"/>
<path d="M351.362 279.331C346.117 277.999 339.768 277 332.524 276.583C328.923 276.375 325.572 276.479 322.491 276.812C314.851 277.666 308.836 279.955 304.548 282.412" stroke="#66B0F0" stroke-width="2" stroke-miterlimit="10" stroke-linecap="round" stroke-linejoin="round"/>
<path d="M349.51 272.4C344.493 271.213 338.519 270.318 331.775 269.923C328.174 269.715 324.822 269.819 321.741 270.152C314.102 271.005 308.086 273.295 303.798 275.751" stroke="#66B0F0" stroke-width="2" stroke-miterlimit="10" stroke-linecap="round" stroke-linejoin="round"/>
<path d="M347.803 265.489C343.015 264.428 337.457 263.637 331.213 263.262C327.612 263.054 324.26 263.158 321.179 263.491C313.54 264.344 307.524 266.634 303.236 269.09" stroke="#66B0F0" stroke-width="2" stroke-miterlimit="10" stroke-linecap="round" stroke-linejoin="round"/>
<path d="M354.672 256.227L367.911 292.28" stroke="#66B0F0" stroke-width="6" stroke-miterlimit="10"/>
<path d="M373.906 298.712H293.994V298.275C294.993 295.027 308.773 283.079 333.919 284.515C355.068 285.723 369.264 291.052 372.948 296.152L373.906 298.712Z" fill="#66B0F0"/>
<path d="M343.348 126.208C343.348 126.208 328.444 133.973 307.753 130.85C302.612 130.08 297.096 128.623 291.392 126.208V101.146L318.203 84.4519L322.22 91.1338L343.348 126.208Z" fill="#E57281"/>
<path d="M319.681 86.43C321.284 89.4067 321.554 92.9454 320.388 96.1302L307.753 130.851C302.612 130.081 297.096 128.624 291.392 126.209V101.147L318.328 83.9321L319.681 86.43Z" fill="#9A3B82"/>
<path d="M317.37 75.2102C317.37 75.2102 320.513 47.2545 309.335 44.6942C300.801 42.7375 296.554 49.1696 296.554 49.1696C296.554 49.1696 291.933 42.4252 284.773 45.5892C277.966 48.5867 278.445 57.933 281.504 57.1837C284.564 56.4343 278.549 50.4393 272.117 54.8731C264.998 59.7648 272.117 67.8414 272.117 67.8414C272.117 67.8414 266.85 65.3019 264.415 70.485C261.396 76.9171 278.632 90.7805 278.632 90.7805L317.37 75.2102Z" fill="#9A3B82"/>
<path d="M300.343 61.7008L282.462 68.8823C278.153 70.61 276.051 75.5433 277.778 79.8314L285.584 99.2942C288.457 106.476 296.7 109.973 303.861 107.1L311.292 104.124C318.473 101.251 321.97 93.0078 319.098 85.8472L311.292 66.3844C309.564 62.0755 304.631 59.9731 300.343 61.7008Z" fill="#E57281"/>
<path d="M322.699 84.3891L319.098 85.8462L315.184 76.1044L318.786 74.6473C320.93 73.7938 323.344 74.8346 324.198 76.9578L325.01 78.977C325.884 81.1002 324.843 83.5148 322.699 84.3891Z" fill="#E57281"/>
<path d="M281.713 100.042L285.314 98.5847L281.671 89.5298L278.07 90.9869C275.926 91.8403 274.906 94.2758 275.759 96.399L276.3 97.7312C277.154 99.8544 279.569 100.895 281.713 100.042Z" fill="#9A3B82"/>
<path d="M318.307 81.266C317.641 79.5799 318.453 77.6857 320.139 76.9988" stroke="#9A3B82" stroke-width="2" stroke-miterlimit="10" stroke-linecap="round"/>
<path d="M300.801 72.2551C300.801 72.2551 305.026 73.8371 310.397 71.2976" stroke="#9A3B82" stroke-width="2" stroke-miterlimit="10" stroke-linecap="round"/>
<path d="M291.871 79.3718C291.871 79.3718 298.178 78.7266 300.468 89.3426" stroke="#9A3B82" stroke-width="2" stroke-miterlimit="10" stroke-linecap="round"/>
<path d="M309.772 92.7999C309.772 92.7999 300.468 90.302 300.801 95.1105" stroke="#9A3B82" stroke-width="2" stroke-miterlimit="10" stroke-linecap="round"/>
<path d="M308.471 82.9536C308.915 82.7962 308.961 81.7814 308.573 80.6869C308.186 79.5925 307.511 78.8328 307.067 78.9902C306.623 79.1476 306.577 80.1624 306.964 81.2569C307.352 82.3513 308.027 83.111 308.471 82.9536Z" fill="#9A3B82"/>
<path d="M291.302 90.1165C291.746 89.9591 291.792 88.9443 291.404 87.8498C291.016 86.7553 290.342 85.9956 289.898 86.153C289.453 86.3104 289.408 87.3252 289.795 88.4197C290.183 89.5142 290.857 90.2738 291.302 90.1165Z" fill="#9A3B82"/>
<path d="M308.274 86.9493C311.596 86.9493 314.289 84.2559 314.289 80.9335C314.289 77.6111 311.596 74.9177 308.274 74.9177C304.951 74.9177 302.258 77.6111 302.258 80.9335C302.258 84.2559 304.951 86.9493 308.274 86.9493Z" stroke="#FFCF2D" stroke-width="2" stroke-miterlimit="10" stroke-linecap="round"/>
<path d="M290.58 93.8194C293.903 93.8194 296.596 91.126 296.596 87.8036C296.596 84.4812 293.903 81.7878 290.58 81.7878C287.258 81.7878 284.564 84.4812 284.564 87.8036C284.564 91.126 287.258 93.8194 290.58 93.8194Z" stroke="#FFCF2D" stroke-width="2" stroke-miterlimit="10" stroke-linecap="round"/>
<path d="M296.2 85.6369L302.549 82.7227" stroke="#FFCF2D" stroke-width="2" stroke-miterlimit="10" stroke-linecap="round"/>
<path d="M253.653 113.99C253.299 114.802 251.301 115.01 248.282 114.594C243.661 113.969 236.625 111.95 229.132 108.62C224.844 106.705 220.951 104.748 217.745 102.916C211.646 99.44 207.962 96.4009 208.566 95.0479C209.169 93.7156 213.853 94.3609 220.472 96.505C224.032 97.6498 228.133 99.2318 232.462 101.168C239.873 104.457 246.305 107.662 250.093 110.139C252.674 111.805 254.027 113.158 253.653 113.99Z" fill="white" stroke="#FE5244" stroke-width="6" stroke-miterlimit="10"/>
<path d="M288.977 71.775L283.315 93.6525L278.215 80.9548C276.259 76.0839 278.611 70.5053 283.419 68.4653L288.977 71.775Z" fill="#9A3B82"/>
<path d="M289.185 71.38L277.945 90.8636C276.654 93.1117 274.24 94.5064 271.638 94.5064H260.022C258.315 94.5064 256.796 95.5471 256.151 97.1083L250.114 110.16L248.345 113.969C243.245 113.282 236.147 111.076 229.361 108.057C226.821 106.933 224.344 105.747 222.054 104.56L225.114 98.1699L230.589 86.742C233.212 80.5597 237.729 75.3558 243.495 71.9004L254.818 65.0936C256.317 64.1985 258.045 63.7197 259.793 63.7197H279.027C280.089 63.7197 281.13 63.9487 282.066 64.4066L287.853 67.1543C289.456 67.9245 290.06 69.8604 289.185 71.38Z" fill="#E57281"/>
<path d="M262 72.0044H275.738C276.758 72.0044 277.757 72.2334 278.673 72.6705L284.231 75.3349C285.751 76.0635 286.334 77.9369 285.501 79.394" stroke="#9A3B82" stroke-width="3" stroke-miterlimit="10" stroke-linecap="round"/>
<path d="M258.586 77.916H272.325C273.345 77.916 274.344 78.145 275.26 78.5821L280.818 81.2466C282.337 81.9751 282.92 83.8485 282.087 85.3056" stroke="#9A3B82" stroke-width="3" stroke-miterlimit="10" stroke-linecap="round"/>
<path d="M254.569 85.6392H268.307C269.327 85.6392 270.326 85.8681 271.242 86.3053L276.8 88.9697C278.319 89.6982 278.902 91.5717 278.07 93.0288" stroke="#9A3B82" stroke-width="3" stroke-miterlimit="10" stroke-linecap="round"/>
<path d="M248.365 113.968C243.266 113.281 236.167 111.075 229.381 108.056C226.842 106.932 224.365 105.746 222.075 104.559L225.531 97.5027C227.841 98.377 230.11 99.3761 232.65 100.521C240.06 103.81 246.534 107.245 250.322 109.722L248.365 113.968Z" fill="#9A3B82"/>
<path d="M250.51 93.9453H260.251" stroke="#9A3B82" stroke-width="3" stroke-miterlimit="10" stroke-linecap="round"/>
<path d="M353.257 257.89C356.004 257.89 358.231 248.599 358.231 237.137C358.231 225.675 356.004 216.384 353.257 216.384C350.509 216.384 348.281 225.675 348.281 237.137C348.281 248.599 350.509 257.89 353.257 257.89Z" fill="white"/>
<path d="M358.231 237.137C358.231 240.696 358.023 244.048 357.628 246.983C356.337 250.272 353.694 252.874 350.363 254.102C349.01 254.601 347.532 254.893 345.992 254.893H327.112C324.739 254.893 322.803 256.829 322.803 259.202V259.784C322.803 263.261 319.098 265.509 316.017 263.885L307.149 259.243C305.567 258.411 304.568 256.766 304.568 254.976V248.044C304.568 245.442 305.796 243.007 307.857 241.446L321.387 231.267C323.677 229.539 326.467 228.623 329.318 228.623H357.774C358.086 231.225 358.231 234.098 358.231 237.137Z" fill="#E57281"/>
<path d="M324.801 235.325L312.374 244.672C310.48 246.108 309.356 248.356 309.356 250.729V257.099C309.356 258.743 310.272 260.263 311.729 261.012" stroke="#9A3B82" stroke-width="3" stroke-miterlimit="10" stroke-linecap="round"/>
<path d="M331.129 238.114L318.702 247.461C316.808 248.897 315.684 251.145 315.684 253.518V259.888C315.684 261.532 316.6 263.052 318.057 263.801" stroke="#9A3B82" stroke-width="3" stroke-miterlimit="10" stroke-linecap="round"/>
<path d="M358.232 237.137C358.232 240.696 358.023 244.048 357.628 246.983C356.337 250.272 353.694 252.874 350.363 254.102C349.093 250.334 348.261 244.152 348.261 237.137C348.261 234.098 348.427 231.225 348.698 228.623H357.794C358.086 231.225 358.232 234.098 358.232 237.137Z" fill="#9A3B82"/>
<path d="M394.389 267.383C406.851 267.383 416.953 266.535 416.953 265.489C416.953 264.443 406.851 263.595 394.389 263.595C381.927 263.595 371.824 264.443 371.824 265.489C371.824 266.535 381.927 267.383 394.389 267.383Z" fill="#FFCF2D"/>
<path d="M413.165 266.922H403.839C395.18 266.922 388.186 259.907 388.186 251.269V237.968H428.839V251.248C428.839 259.907 421.824 266.922 413.165 266.922Z" fill="white" stroke="#FFCF2D" stroke-width="6" stroke-miterlimit="10"/>
<path d="M434.522 249.355H428.818V239.218H434.522C436.957 239.218 438.955 241.195 438.955 243.651V244.942C438.955 247.377 436.957 249.355 434.522 249.355Z" stroke="#FFCF2D" stroke-width="6" stroke-miterlimit="10"/>
<path d="M408.502 241.924C419.826 241.924 429.006 240.088 429.006 237.823C429.006 235.559 419.826 233.723 408.502 233.723C397.178 233.723 387.998 235.559 387.998 237.823C387.998 240.088 397.178 241.924 408.502 241.924Z" fill="#3FB1B5" stroke="white" stroke-width="5" stroke-miterlimit="10"/>
<path d="M388.206 241.155C388.206 243.424 397.303 245.255 408.502 245.255C419.701 245.255 428.797 243.424 428.797 241.155" stroke="#FFCF2D" stroke-width="6" stroke-miterlimit="10"/>
<path d="M388.206 245.503C388.206 247.772 397.303 249.604 408.502 249.604C419.701 249.604 428.797 247.772 428.797 245.503" stroke="#FFCF2D" stroke-width="6" stroke-miterlimit="10"/>
<path d="M388.206 249.854C388.206 252.123 397.303 253.954 408.502 253.954C419.701 253.954 428.797 252.123 428.797 249.854" stroke="#FFCF2D" stroke-width="6" stroke-miterlimit="10"/>
<path d="M388.519 254.204C388.519 256.473 397.469 258.305 408.502 258.305C419.534 258.305 428.485 256.473 428.485 254.204" stroke="#FFCF2D" stroke-width="6" stroke-miterlimit="10"/>
<path d="M390.08 258.557C390.08 260.826 398.323 262.657 408.502 262.657C418.681 262.657 426.924 260.826 426.924 258.557" stroke="#FFCF2D" stroke-width="6" stroke-miterlimit="10"/>
<path d="M407.69 230.536C405.692 229.162 399.468 216.069 407.17 210.719C413.081 206.598 414.226 217.276 411.499 216.381C406.753 214.82 403.86 193.921 416.245 195.212C421.699 195.774 421.095 203.538 416.245 203.746" stroke="white" stroke-width="2" stroke-miterlimit="10" stroke-linecap="round"/>
<path d="M165.602 291.694H63.292C60.5443 291.694 58.088 290.029 57.0681 287.49L29.0708 218.298C27.7385 214.988 30.174 211.366 33.7335 211.366H136.043C138.791 211.366 141.247 213.031 142.267 215.571L170.265 284.763C171.618 288.072 169.182 291.694 165.602 291.694Z" fill="white" stroke="#FFCF2D" stroke-width="6" stroke-miterlimit="10"/>
<path d="M160.856 292.194H63.2504C60.6485 292.194 58.2963 290.612 57.3179 288.198L30.6112 222.191C29.3414 219.027 31.652 215.592 35.0658 215.592H132.671C135.273 215.592 137.625 217.174 138.604 219.589L165.311 285.596C166.58 288.76 164.249 292.194 160.856 292.194Z" fill="#FFCF2D"/>
<path d="M100.927 262.178C98.0544 262.178 95.3483 261.054 93.3083 259.014C91.6431 257.349 90.7272 255.142 90.7272 252.811C90.7272 250.459 91.6431 248.252 93.3083 246.608C94.6614 245.255 96.4723 244.505 98.3874 244.505C100.302 244.505 102.113 245.255 103.466 246.608C105.777 248.918 105.777 252.665 103.466 254.976C101.551 256.891 98.4499 256.891 96.5348 254.976C96.2017 254.643 96.2017 254.122 96.5348 253.789C96.8679 253.456 97.3882 253.456 97.7213 253.789C98.9911 255.059 101.031 255.059 102.301 253.789C103.966 252.124 103.966 249.439 102.301 247.773C101.26 246.733 99.8653 246.15 98.3874 246.15C96.9095 246.15 95.5148 246.733 94.474 247.773C93.121 249.126 92.3924 250.896 92.3924 252.811C92.3924 254.705 93.1418 256.495 94.474 257.848C96.2017 259.576 98.4707 260.513 100.906 260.513C103.342 260.513 105.631 259.576 107.338 257.848C107.671 257.515 108.192 257.515 108.525 257.848C108.858 258.181 108.858 258.702 108.525 259.035C106.506 261.054 103.8 262.178 100.927 262.178Z" fill="white"/>
<path d="M202.217 299.022H63.4168C61.814 299.022 60.5234 297.731 60.5234 296.128V294.734C60.5234 293.131 61.814 291.84 63.4168 291.84H202.217C203.82 291.84 205.11 293.131 205.11 294.734V296.128C205.089 297.731 203.799 299.022 202.217 299.022Z" fill="white" stroke="#FFCF2D" stroke-width="6" stroke-miterlimit="10"/>
</svg>
